<svg version="1.1" id="Слой_1" xmlns="http://www.w3.org/2000/svg" x="0" y="0" viewBox="0 0 860.77 321.42" xml:space="preserve"><style>.st0{fill:#fff}</style><path class="st0" d="M152.19 10.73c.27 1.03.69 1.96.74 2.91.18 3.72.32 7.45.31 11.18-.01 2.64-.83 3.42-3.4 3.64-1.1.09-2.22-.03-3.31.12-1.2.16-2.41.42-3.55.83-1.24.45-1.72 1.51-1.61 2.84.09 1.16.7 1.88 2.07 2.29.58.17 1.21.34 1.8.31 3.73-.17 7.46-.43 11.2-.58 2.26-.09 3.9-2.11 3.93-4.37.03-2.67.02-5.35.06-8.02.03-2.61.07-5.22.15-7.83.02-.55.15-1.11.28-1.65.48-2.05.96-2.45 3.07-2.3 1.89.13 3.78.42 5.67.6 3.72.37 7.46.61 11.16 1.12 4.12.57 8.23 1.29 12.31 2.12 2.35.48 2.9 1.59 2.39 3.94-.59 2.73-1.21 5.45-1.85 8.17-.15.66-.38 1.31-.62 1.95-.98 2.5-1.49 2.89-4.11 2.78-1.71-.07-3.41-.33-5.12-.49-.55-.05-1.1-.08-1.65-.08-1.05.01-1.97.32-2.3 1.47-.33 1.15-.2 2.24.74 3.08.41.36.88.69 1.38.9.73.3 1.5.53 2.28.71 3.05.69 6.11 1.32 9.15 2.01 1.82.41 2.46.25 3.29-1.43.63-1.27 1.11-2.63 1.51-3.99 1.26-4.22 2.42-8.48 3.68-12.7 1.03-3.44 1.67-3.9 5.02-2.65 6.27 2.34 12.45 4.9 18.65 7.4 1.25.5 2.49 1.07 3.65 1.76 1.95 1.16 2.39 2.49 1.35 4.55-1.73 3.43-3.57 6.8-5.44 10.15-.88 1.56-1.29 1.69-3.02 1.24-1.06-.28-2.05-.81-3.08-1.2-.86-.32-1.7-.73-2.59-.89-1.53-.28-2.71.45-3.25 1.82-.48 1.23-.13 2.14 1.25 3.13.55.39 1.13.75 1.72 1.07 2.01 1.07 4.01 2.14 6.04 3.16 2.19 1.1 3.52.78 4.83-1.31 1.51-2.41 2.9-4.9 4.35-7.35 1.48-2.5 3.02-4.97 4.46-7.51.75-1.32 1.82-1.57 3.11-1.22.69.19 1.4.5 1.98.92 5.69 4.11 11.36 8.26 17.03 12.39.05.04.1.08.14.12 3.16 2.6 3.29 3.79.67 6.87-1.76 2.07-3.55 4.12-5.33 6.18-.36.42-.74.83-1.14 1.22-1.66 1.65-2.22 1.72-4.12.41-.81-.56-1.54-1.23-2.32-1.83-.78-.6-1.53-1.25-2.36-1.78-1.54-.98-2.23-.91-3.25.2-1.05 1.14-1.24 2.73-.38 3.92.39.55.88 1.04 1.38 1.49 2.18 1.91 4.38 3.8 6.58 5.68.33.28.68.53 1.04.77 1.35.87 2.06.86 3.34-.13.58-.45 1.12-.97 1.63-1.51 3.16-3.3 6.3-6.62 9.47-9.92.68-.71 1.39-1.41 2.17-2 1.04-.79 1.81-.77 2.86.01.59.44 1.12.97 1.62 1.51 6.11 6.66 11.77 13.69 17.03 21.04 2.62 3.66 1.75 4.13-1.08 6.03-2.4 1.62-4.82 3.2-7.25 4.78-.56.37-1.16.7-1.77.97-1.26.56-2.43.38-3.35-.68-.85-.98-1.6-2.04-2.4-3.06-.84-1.07-1.6-2.21-2.53-3.19-1.05-1.12-2.07-1.17-3.31-.39-1.15.72-1.62 1.86-1.23 3.21.15.53.43 1.03.73 1.49 2.08 3.15 4.14 6.32 6.28 9.43 1.84 2.67 2.72 2.86 5.5 1.27 4-2.29 7.97-4.66 11.95-6.98.8-.46 1.59-.94 2.44-1.3 1.57-.66 2.68-.31 3.67 1.12.39.56.69 1.17.99 1.78 4.05 8.24 7.62 16.69 10.69 25.36.08.23.17.47.24.7.69 2.4.33 3.3-2.05 4.11-3.72 1.26-7.49 2.35-11.23 3.52-.94.3-1.75.04-2.31-.7a12.46 12.46 0 0 1-1.46-2.56c-.49-1.14-.73-2.38-1.25-3.5-.46-1-1.06-1.96-1.75-2.81-.71-.88-1.67-.87-2.68-.42-1 .44-1.65 1.07-1.47 2.26.18 1.16.27 2.35.59 3.47.72 2.5 1.55 4.97 2.34 7.46.09.3.19.59.31.88 1.15 2.86 2.31 3.6 5.26 2.93 4.24-.97 8.44-2.11 12.67-3.16 1.07-.27 2.13-.6 3.22-.72 1.79-.19 2.35.14 2.9 1.85.57 1.76 1.09 3.57 1.4 5.4.78 4.59 1.47 9.2 2.11 13.81.27 1.97.35 3.96.46 5.95.03.61-.11 1.23-.22 1.84-.21 1.2-.96 1.91-2.13 1.97-3.92.19-7.84.37-11.76.42-1.78.02-2.99-1.03-3.4-2.84-.19-.84-.25-1.72-.42-2.57-.21-1.09-.36-2.22-.75-3.25-.52-1.37-1.67-1.77-3-1.17-1.13.51-1.88 1.38-2.14 2.63-.06.3-.12.62-.08.93.39 3.2.71 6.41 1.23 9.59.27 1.63 1.08 2.21 2.89 2.3 2.82.13 5.64.14 8.46.17 2.58.03 5.15-.01 7.73.05 3.05.07 3.64.69 3.65 3.78.02 5.92-.39 11.79-1.57 17.61-.34 1.7-.38 3.46-.62 5.18-.34 2.43-1.27 3.22-3.71 3.1a21.14 21.14 0 0 1-3.46-.45c-2.46-.52-4.9-1.11-7.34-1.72-1.93-.48-2.55-1.3-2.49-3.32.03-1.11.26-2.22.32-3.34.06-1.17.14-2.37-.02-3.52-.2-1.43-.92-2.06-2.14-2.18-1.27-.12-2.33.29-2.94 1.46-.31.59-.51 1.27-.63 1.93-.58 3.11-1.14 6.22-1.65 9.35-.53 3.29-.2 3.05 2.22 3.99 2.22.86 4.59 1.31 6.9 1.91 2.97.77 5.94 1.5 8.91 2.27.41.11.82.25 1.22.42 2.18.94 2.56 1.53 1.88 3.86-.86 2.98-1.82 5.93-2.9 8.84-2.04 5.53-4.16 11.02-6.34 16.5-.47 1.19-1.25 2.27-1.99 3.32-.54.76-1.37 1.05-2.29.74-.92-.31-1.87-.59-2.74-1.03-2.14-1.08-4.24-2.23-6.36-3.36-3.72-1.98-4.25-3.67-2.39-7.53.7-1.45 1.45-2.88 1.99-4.39.77-2.16-.93-4.19-3.18-3.82-.53.09-1.13.5-1.47.94-.6.77-1.08 1.66-1.52 2.55-1.4 2.83-2.79 5.67-4.13 8.54-1.6 3.41-1.21 4.64 2.01 6.54 3.82 2.25 7.65 4.47 11.46 6.73.89.53 1.77 1.13 2.52 1.85 1.15 1.1 1.23 1.88.55 3.33-.24.5-.53.98-.83 1.45-4.79 7.38-9.94 14.5-15.59 21.23-.63.76-1.3 1.5-2.03 2.16-1.21 1.08-1.95 1.1-3.32.25-.36-.23-.73-.47-1.04-.77-2.57-2.49-5.16-4.96-7.67-7.52-1.47-1.5-1.48-2.76-.18-4.47.78-1.03 1.69-1.97 2.51-2.98.66-.81 1.34-1.63 1.9-2.51.77-1.22.64-2.27-.27-3.21-1.03-1.06-2.36-1.32-3.5-.57-.66.44-1.27.98-1.81 1.57-2.25 2.46-4.49 4.94-6.69 7.45-1.81 2.07-1.88 3.31-.02 5.36 2.98 3.3 6.1 6.48 9.14 9.72.97 1.03 1.96 2.07 2.81 3.2.96 1.29.89 1.74-.11 2.97-.51.62-1.06 1.23-1.68 1.72-5.73 4.58-11.47 9.13-17.22 13.69-.1.08-.2.14-.3.21-2.93 2.04-4.27 1.86-6.23-1.11-1.8-2.74-3.5-5.55-5.12-8.41-1.27-2.24-1.01-3.18.98-4.76.77-.61 1.64-1.1 2.39-1.74.65-.55 1.28-1.18 1.74-1.89.71-1.11.51-2.27-.36-3.24-.83-.92-1.77-1.14-2.99-.6-.67.29-1.34.63-1.95 1.04-1.99 1.34-3.99 2.68-5.92 4.1-2.05 1.51-2.31 2.5-1.09 4.75 2.28 4.19 4.67 8.32 6.99 12.49.54.97 1.09 1.96 1.47 2.99.52 1.41.27 2.18-.9 3.1-.57.45-1.22.84-1.88 1.15-6.35 2.95-12.68 5.95-19.08 8.79-3.69 1.63-4.63 1.12-6.01-2.72-.98-2.74-1.87-5.52-2.8-8.29-.1-.29-.19-.59-.25-.9-.45-2.36-.05-3.29 2.08-4.35 1.48-.74 3.07-1.26 4.56-1.97 1.42-.68 1.95-1.9 1.6-3.38-.43-1.83-1.65-2.71-3.4-2.1-3.65 1.26-7.25 2.69-10.87 4.05-1.24.46-1.74 1.37-1.47 2.63.48 2.24.99 4.48 1.6 6.69.94 3.41 1.98 6.79 2.98 10.18.79 2.7.15 3.95-2.48 4.83-.17.06-.35.14-.52.17-4.63.88-9.26 1.76-13.9 2.63-2.47.46-4.93.96-7.42 1.33-1.82.27-3.66.39-5.49.52-.66.05-1.35-.02-2.01-.14-1.72-.33-2.37-.95-2.49-2.72-.18-2.73-.21-5.46-.28-8.2-.03-1.12-.01-2.24.02-3.36.04-1.55.8-2.62 2.27-3.02 1.23-.34 2.51-.51 3.77-.74 1.5-.27 3.05-.39 4.51-.81 1.54-.45 1.98-1.86 1.15-3.26-.84-1.43-2.03-2.31-3.77-2.14-.79.08-1.6.12-2.37.33-2.15.59-4.34.72-6.56.72-1.04 0-2.08.15-3.11.25-1.3.13-2.17.89-2.52 2.13-.26.94-.44 1.94-.45 2.92-.05 4.42-.02 8.83-.02 13.25 0 .62.01 1.25-.08 1.86-.26 1.64-1.14 2.49-2.77 2.77-.36.06-.73.13-1.09.13-5.95-.02-11.88-.01-17.75-1.31-2.68-.59-5.47-.71-8.18-1.19-1.37-.25-2.73-.72-3.99-1.32-1.51-.72-1.67-1.18-1.3-2.83.7-3.15 1.44-6.29 2.23-9.42.24-.96.68-1.86 1.04-2.78.46-1.19 1.32-1.77 2.58-1.6 1.21.17 2.41.39 3.61.61 1.2.23 2.39.59 3.6.71 1.67.17 2.53-.56 2.85-2.21.31-1.55-.39-3.17-1.74-3.49-4-.94-8.01-1.83-12.04-2.58-1.81-.34-2.72.31-3.52 1.99-.4.84-.74 1.71-.99 2.6-1.01 3.52-1.95 7.06-2.98 10.57-.44 1.48-.96 2.95-1.6 4.36-.66 1.44-1.45 1.75-3 1.43-.6-.12-1.2-.29-1.76-.51-6.21-2.49-12.43-4.97-18.61-7.52-1.41-.58-2.7-1.47-4.07-2.16-1-.5-1.23-1.32-1.04-2.32.12-.6.26-1.23.54-1.77 1.64-3.13 3.28-6.26 5.01-9.33 1.13-2 2.58-2.43 4.75-1.54 1.31.54 2.56 1.19 3.86 1.75 1.07.46 2.04.23 2.87-.59 1.27-1.24 1.29-2.85.04-4.1-.35-.34-.75-.65-1.18-.88-2.22-1.19-4.43-2.42-6.7-3.51-2.66-1.27-4.01-.87-5.54 1.7-2.18 3.68-4.25 7.42-6.38 11.12-.68 1.18-1.33 2.39-2.14 3.47-1.11 1.49-2.03 1.65-3.66.79-.87-.46-1.7-1-2.49-1.58-5.37-3.92-10.77-7.82-16.08-11.83-3.06-2.31-3.15-3.68-.71-6.58 1.75-2.08 3.56-4.12 5.35-6.16.32-.37.68-.72 1.04-1.05 1.82-1.65 2.93-1.73 4.89-.29.89.66 1.73 1.39 2.63 2.04.59.43 1.21.87 1.87 1.17 1.36.61 2.33.37 3.13-.64.9-1.14.95-2.42.05-3.59-.53-.68-1.14-1.3-1.79-1.87a403.63 403.63 0 0 0-5.9-5.06c-.37-.32-.8-.58-1.19-.87-1.16-.85-2.31-.74-3.39.1-.72.57-1.4 1.2-2.04 1.87-3.03 3.17-6.03 6.37-9.06 9.54-.68.71-1.43 1.37-2.22 1.95-1.03.75-1.84.7-2.86-.08-.53-.41-1.02-.89-1.49-1.39-6.21-6.65-11.88-13.75-17.15-21.18-1.89-2.66-2.42-3.3 1.06-5.85 2.53-1.86 5.2-3.52 7.86-5.19 2.44-1.53 3.58-1.32 5.39.9.78.96 1.43 2.02 2.18 3 .67.88 1.34 1.78 2.13 2.56.97.97 1.93 1.02 3.01.36 1.04-.64 1.69-1.89 1.4-3-.2-.77-.54-1.53-.97-2.19-1.83-2.8-3.68-5.58-5.58-8.33-2.5-3.61-3.66-3.44-6.83-1.56-3.97 2.36-7.96 4.67-11.96 6.97-3.33 1.92-4.56 1.6-6.23-1.88-3.99-8.27-7.68-16.67-10.66-25.37-1.07-3.11-.5-4.31 2.58-5.34 2.62-.88 5.27-1.65 7.91-2.45.53-.16 1.07-.27 1.62-.34 2.53-.33 3.59.31 4.55 2.71.8 2.01 1.6 4.03 2.45 6.02.39.92 1.04 1.51 2.16 1.3 1.1-.21 2.02-.67 2.38-1.78.2-.63.26-1.35.18-2.01-.11-.92-.37-1.82-.64-2.71-.7-2.32-1.4-4.63-2.17-6.92-.35-1.05-.8-2.08-1.34-3.05-.59-1.08-1.56-1.55-2.8-1.29-.66.13-1.32.26-1.98.42-4.34 1.09-8.68 2.19-13.02 3.27-.77.19-1.57.32-2.36.38-1.77.14-2.43-.3-3.07-1.98-1.05-2.75-1.44-5.64-1.83-8.54-.57-4.25-1.2-8.48-1.74-12.73-.19-1.47-.24-2.97-.22-4.46.03-1.9 1.15-3.21 3.04-3.32 3.73-.23 7.47-.36 11.21-.42 1.73-.03 2.94 1.11 3.32 2.91.2.97.25 1.97.35 2.96.07.62.05 1.25.18 1.85.41 1.96 1.28 2.56 3.29 2.33 1.68-.19 2.62-1.2 2.46-3.06-.26-3.16-.64-6.3-1.09-9.44-.21-1.5-1.12-2.22-2.71-2.28-2.51-.1-5.03-.1-7.54-.11-2.82-.01-5.64.02-8.46.01-.67 0-1.35-.04-2.02-.16-1.15-.2-1.86-.91-2.02-2.1-.09-.68-.16-1.36-.15-2.04.08-5.16.13-10.31 1.23-15.4.45-2.05.5-4.19.74-6.29.09-.74.13-1.49.32-2.21.5-1.95 1.79-2.75 3.73-2.35 3.06.63 6.12 1.24 9.17 1.94.94.22 1.87.6 2.73 1.05 1.14.6 1.68 1.59 1.46 2.94-.16.98-.29 1.96-.44 2.94-.12.8-.33 1.59-.37 2.39-.09 1.8.78 2.86 2.46 3.12 1.61.25 2.91-.58 3.35-2.19.18-.66.24-1.34.36-2.02.35-1.89.71-3.77 1.05-5.66.2-1.1.41-2.19.54-3.3.17-1.49-.59-2.51-1.86-3.13-.65-.32-1.37-.53-2.09-.71-4.22-1.06-8.45-2.07-12.67-3.14-.95-.24-1.89-.55-2.79-.93-1.87-.78-2.3-1.51-1.72-3.46 1.13-3.81 2.26-7.62 3.62-11.34 1.76-4.84 3.72-9.6 5.64-14.37.39-.97.9-1.91 1.45-2.8.9-1.42 1.72-1.67 3.29-1.14.35.12.68.28 1.01.45 2.88 1.52 5.76 3.05 8.63 4.58.43.23.87.49 1.23.81.95.83 1.5 1.85 1.03 3.14-.56 1.57-1.24 3.1-1.79 4.68-.4 1.16-.82 2.35-.95 3.56-.15 1.37.55 2.33 1.54 2.69 1.29.46 2.28.13 3.2-1.09.33-.45.66-.91.9-1.41 1.62-3.35 3.26-6.69 4.79-10.07.97-2.15.52-3.64-1.36-5.04-.84-.62-1.75-1.15-2.65-1.68-3.44-2.03-6.93-3.99-10.34-6.09-3.59-2.21-3.83-2.92-1.45-6.63 4.83-7.51 10.15-14.65 15.83-21.52 2.52-3.04 3.76-3.09 6.63-.34 2.05 1.96 4.09 3.94 6.12 5.92.48.47.93.99 1.31 1.55.68 1.01.79 2.11.08 3.14-.73 1.07-1.56 2.07-2.34 3.1-.82 1.08-1.72 2.11-2.46 3.25-.71 1.1-.52 2.11.35 3.03.89.94 2.13 1.28 3.17.71.69-.38 1.35-.88 1.88-1.46 2.33-2.56 4.6-5.17 6.9-7.76.12-.14.23-.29.34-.44 1.28-1.78 1.29-3.04-.2-4.66-2.67-2.92-5.41-5.77-8.11-8.65-1.18-1.26-2.38-2.52-3.52-3.82-1.31-1.5-1.29-2.64.08-4.06.77-.8 1.57-1.59 2.43-2.28 5.3-4.23 10.62-8.43 15.94-12.64.43-.34.9-.66 1.37-.95 1.95-1.21 3.15-1.11 4.42.76 2.12 3.12 4.13 6.32 6.06 9.57 1.09 1.82.86 2.86-.71 4.28-1 .91-2.18 1.61-3.2 2.5-.63.55-1.3 1.22-1.6 1.97-.44 1.12.01 2.2.88 3.04.8.77 1.73.87 2.73.45.28-.12.58-.22.83-.39 2.5-1.68 5.01-3.36 7.49-5.08 1.07-.74 1.45-1.88 1.14-3.12-.24-.95-.63-1.88-1.11-2.74-2.21-3.95-4.48-7.86-6.7-11.8-2.03-3.58-1.82-4.89 1.8-6.66 6.4-3.12 12.92-6 19.44-8.86 1.01-.44 2.29-.32 3.44-.3.36.01.87.45 1.04.82a47.61 47.61 0 0 1 1.68 4.13c.71 1.98 1.36 3.99 2.03 5.99 1.16 3.44.53 4.81-2.81 6.27-1.29.56-2.62 1.1-3.8 1.85-.6.38-1.13 1.16-1.33 1.87-.36 1.32.61 3.35 2.68 3.11.91-.11 1.83-.26 2.69-.56 2.26-.78 4.49-1.65 6.74-2.49.46-.17.92-.36 1.36-.57 2.84-1.39 2.99-1.72 2.11-4.83-1.39-4.89-2.81-9.78-4.21-14.67-.07-.24-.15-.47-.22-.71-.67-2.53-.36-3.18 2.05-4.09.92-.35 1.85-.7 2.8-.9 4.74-.97 9.47-2.04 14.25-2.79 4.05-.63 8.17-.88 12.25-1.27.61-.08 1.22-.03 2.18-.03zm-43.2 289.37c-1.63-.6-3.01-1.08-4.36-1.61-1.26-.49-2.47-1.11-3.74-1.53-1.21-.39-2.15.05-2.85 1.11-1.01 1.51-.72 3.31.95 4.1 3.61 1.68 7.32 3.17 10.99 4.72.28.12.6.12.9.16 1.36.18 2.45-.24 3-1.59.65-1.6 1.29-3.22 1.86-4.86 1.24-3.64 2.28-7.36 3.69-10.93 1.35-3.4 1.29-3.96 5.79-2.82 5.11 1.29 10.17 2.77 15.43 3.4 1.81.22 3.62.7 5.34 1.31 1.95.69 2.52 2.03 2.22 4.12-.38 2.7-.69 5.42-1.03 8.13-.09.74-.12 1.49-.22 2.23-.27 1.99-.89 2.66-2.83 2.73-1.52.06-3.06-.11-4.59-.18-1.22-.06-2.46-.26-3.66-.13-.79.08-1.67.48-2.27 1.02-1.15 1.02-.99 2.48.31 3.28.88.54 1.87.97 2.87 1.22 4.68 1.18 9.46 1.31 14.25 1.21 1.09-.02 1.74-.63 1.91-1.66.2-1.22.28-2.46.38-3.69.37-4.45.63-8.92 1.13-13.36.47-4.15.84-4.27 4.97-4.41 4.9-.17 9.79-.46 14.68-.83 2.07-.16 4.11-.7 6.17-.96 2-.26 3.05.38 3.73 2.22 1.44 3.88 2.06 7.93 2.27 12.04.11 2.09-.52 3-2.51 3.55-1.4.39-2.9.43-4.34.66-1.2.19-2.44.3-3.59.68-1.41.46-1.95 1.62-1.71 3.1.22 1.37 1.03 2.21 2.5 2.26 1.4.05 2.83.01 4.21-.21 3.21-.5 6.39-1.13 9.58-1.73.6-.11 1.2-.27 1.77-.5 1.25-.51 2.02-1.43 1.92-2.86-.08-1.05-.18-2.11-.43-3.13-.98-4.04-2.04-8.06-3.02-12.1-.25-1.02-.38-2.08-.44-3.13-.11-1.81.3-2.48 1.95-3.15 1.31-.53 2.66-.95 3.99-1.42 3.7-1.31 7.41-2.61 11.1-3.94 1.33-.48 2.61-1.09 3.95-1.51 2.59-.81 3.11-.57 4.45 1.75.12.21.23.44.34.66 1.39 2.91 2.8 5.81 4.16 8.73.28.61.43 1.29.6 1.94.26.97-.04 1.72-.91 2.2-1.18.66-2.39 1.27-3.55 1.95-1.06.62-2.14 1.21-3.1 1.97-.85.67-1.01 2.04-.57 3.08.44 1.06 1.27 1.5 2.36 1.36.78-.1 1.61-.18 2.32-.49 2.76-1.2 5.53-2.4 8.21-3.76 3.17-1.61 3.45-2.73 1.8-5.91-2.28-4.4-4.56-8.8-6.84-13.21-.31-.6-.64-1.21-.84-1.86-.35-1.09-.18-2.1.8-2.83.74-.55 1.48-1.1 2.24-1.62 4.02-2.74 8.05-5.46 12.07-8.19.51-.35 1-.73 1.53-1.04 1.71-1 2.44-1.05 3.72.45 2.64 3.1 5.11 6.35 7.66 9.54.04.05.07.1.1.16.76 1.39.72 2.24-.36 3.37-.81.84-1.75 1.55-2.62 2.33-.83.74-1.71 1.42-2.46 2.23-.9.96-.96 2-.37 3.08.59 1.07 1.54 1.61 2.77 1.34.76-.17 1.56-.46 2.17-.93 2.64-2.02 5.3-4.04 7.8-6.23 2.93-2.57 2.89-3.03.35-6-3.33-3.9-6.69-7.78-10.01-11.69-1.78-2.1-1.69-3.32.11-5.34 4.56-5.12 9.08-10.28 13.62-15.41.49-.56 1.02-1.07 1.52-1.62.77-.86 1.7-.94 2.69-.54.51.2 1 .49 1.44.81 2.61 1.86 5.21 3.72 7.8 5.61.5.36.97.77 1.39 1.22 1.16 1.24 1.32 2.04.47 3.51-.7 1.23-1.57 2.37-2.4 3.52-.76 1.05-1.64 2.02-2.34 3.11-.94 1.45-.75 2.6.43 3.65 1.24 1.1 2.51 1.11 3.79-.03.41-.37.78-.79 1.11-1.24 2.26-3.02 4.52-6.04 6.76-9.08.47-.65.9-1.34 1.27-2.05.88-1.71.7-2.68-.73-3.95-.64-.57-1.36-1.06-2.08-1.53-3.9-2.59-7.83-5.13-11.7-7.75-2.43-1.65-2.68-2.83-1.39-5.51.05-.11.11-.22.17-.33 3.38-6.35 6.51-12.82 9.29-19.46 1.12-2.66 2.56-3.34 5.29-2.43 3.2 1.07 6.37 2.24 9.5 3.5 2.43.97 2.81 1.82 2.04 4.32-.52 1.72-1.33 3.34-1.85 5.06-.33 1.1-.49 2.29-.47 3.44.01 1.06.64 1.85 1.77 2.08 1.4.29 2 .1 2.78-1.14.53-.83 1.03-1.71 1.38-2.62 1.34-3.47 2.63-6.96 3.91-10.46.19-.52.3-1.07.42-1.62.27-1.31-.09-2.39-1.33-2.95-1.45-.65-2.93-1.26-4.44-1.74-3.51-1.11-7.05-2.1-10.57-3.18-.93-.29-1.82-.73-2.74-1.09-.97-.39-1.48-1.13-1.44-2.16.06-1.48.05-3 .36-4.44.86-4.07 1.82-8.11 2.23-12.27.16-1.6.49-3.2.94-4.74.73-2.49 2.03-3.22 4.57-2.91 2.98.36 5.97.66 8.95.99.37.04.73.08 1.09.14 2.13.39 2.5.73 2.58 2.89.07 1.86-.08 3.73-.02 5.59.03.78.18 1.64.55 2.31.95 1.7 2.66 1.79 3.92.33.85-.98 1.19-2.16 1.32-3.42.16-1.61.33-3.22.41-4.83.08-1.74.13-3.48.06-5.22-.08-1.98-.94-2.93-2.86-3.29-.72-.14-1.46-.15-2.2-.17-4.66-.13-9.32-.24-13.97-.37-.61-.02-1.22-.11-1.82-.22-.95-.18-1.54-.77-1.64-1.76-.14-1.42-.27-2.84-.35-4.27-.14-2.61-.14-5.22-.37-7.82-.19-2.16-.64-4.3-.94-6.45-.31-2.13.65-3.64 2.69-4.25.35-.11.72-.14 1.08-.21 2.53-.45 5.07-.9 7.6-1.33 1.09-.18 2.18-.42 3.27-.43 1.55-.02 2.44.65 2.81 2.16.27 1.07.25 2.21.42 3.31.19 1.22.29 2.48.71 3.62.52 1.44 1.64 1.92 3.11 1.67 1.29-.22 2.03-1.09 2.15-2.61.05-.68.1-1.38.01-2.05-.42-2.95-.82-5.9-1.36-8.83-.74-4.01-1.54-4.61-5.48-3.88-4.57.86-9.12 1.86-13.67 2.86-3.59.79-4.76.1-5.72-3.52-.02-.06-.02-.12-.04-.18-1.54-6.15-3.48-12.17-5.75-18.08-.35-.91-.56-1.91-.64-2.89-.11-1.24.25-2.38 1.47-2.96 3.38-1.62 6.77-3.21 10.17-4.8.22-.1.48-.12.72-.17 1.79-.36 2.65-.07 3.54 1.54.75 1.35 1.26 2.82 1.91 4.23.54 1.18 1.01 2.41 1.7 3.5.81 1.27 1.83 1.52 3.01 1.02 1.24-.53 2.06-1.83 1.87-3.11-.09-.61-.29-1.21-.53-1.78-1.62-3.89-3.25-7.78-4.91-11.66-.27-.62-.61-1.23-1.02-1.76-.98-1.27-1.75-1.47-3.2-.89-.68.27-1.34.62-1.99.96-4.31 2.24-8.61 4.5-12.92 6.74-.43.23-.89.41-1.35.59-1.24.49-2.31.19-3.13-.84-.61-.77-1.16-1.6-1.7-2.43-3.68-5.51-7.35-11.02-11.02-16.52-.27-.41-.6-.79-.87-1.21-1.03-1.64-.97-3.25.44-4.55 2.81-2.59 5.68-5.13 8.62-7.57 1.67-1.39 2.41-1.3 3.98.27 1.13 1.13 2.07 2.45 3.12 3.66.85.98 1.67 2.01 2.64 2.84.98.84 2.27.63 3.36-.31 1.08-.93 1.29-1.84.64-3.13-.28-.55-.61-1.08-1-1.56-2.49-3.08-4.99-6.14-7.5-9.2-.43-.52-.92-1-1.44-1.44-1.33-1.13-2.06-1.19-3.47-.23-.71.48-1.37 1.06-1.99 1.65-3.4 3.23-6.77 6.5-10.18 9.72-2.64 2.49-3.45 2.43-6.22 0-4.4-3.86-8.85-7.68-13.27-11.52-.6-.52-1.19-1.08-1.72-1.67-.82-.92-.99-1.99-.43-3.11.42-.83.88-1.64 1.39-2.41 1.37-2.06 2.77-4.11 4.18-6.14.49-.71 1.01-1.41 1.58-2.05 1.12-1.27 1.92-1.43 3.39-.57.9.52 1.71 1.2 2.56 1.81.95.68 1.86 1.43 2.88 2 1.46.82 2.77.35 3.56-1.12.78-1.45.6-2.73-.94-3.93-2.92-2.26-5.95-4.38-8.96-6.52-.43-.31-1-.46-1.53-.58-.98-.23-1.75-.01-2.34.95-1.46 2.37-3 4.69-4.5 7.04-1.67 2.61-3.28 5.25-5 7.82-1.36 2.03-2.72 2.25-4.89 1.15-4.81-2.47-9.65-4.89-14.47-7.34-.55-.28-1.12-.54-1.59-.92-.96-.81-1.54-1.88-1.09-3.13 1.38-3.85 2.76-7.7 4.33-11.48.72-1.73 1.83-2.09 3.64-1.56 1.11.32 2.14.94 3.25 1.29 1.15.36 2.35.66 3.54.8 1.12.13 1.83-.62 2.2-1.63.37-1.02.26-2.02-.62-2.71-.82-.64-1.7-1.24-2.63-1.67-2.8-1.26-5.63-2.47-8.48-3.61-3.07-1.23-3.94-.78-5.08 2.41-.15.41-.28.82-.42 1.23-1.25 3.77-2.48 7.54-3.75 11.31-.38 1.12-.81 2.21-1.27 3.29-.53 1.26-1.44 1.98-2.87 1.81-1.27-.15-2.57-.18-3.82-.45-4.24-.94-8.47-1.99-12.71-2.96-1.43-.33-2.89-.52-4.33-.81-.9-.18-1.79-.39-2.67-.66-.84-.26-1.25-.84-1.32-1.79-.15-1.86-.29-3.68.01-5.56.4-2.57.55-5.19.72-7.79.08-1.26.8-1.85 1.85-1.91 1.51-.08 3.04.03 4.56.14 1.64.12 3.28.44 4.92.45 1.46 0 2.48-1.14 2.69-2.59.19-1.36-.48-2.46-1.94-2.97-.69-.24-1.43-.35-2.15-.45-3.09-.45-6.18-.89-9.28-1.3-1.21-.16-2.44-.32-3.66-.34-2.31-.03-2.96.54-3.3 2.82-.15.98-.15 1.98-.21 2.97-.27 4.28-.52 8.55-.8 12.83-.03.49-.16.98-.27 1.46-.54 2.21-1.48 3.06-3.66 3.24-5.99.48-11.98.94-17.97 1.42-1.47.12-2.93.26-4.4.38-2.22.17-3.14-.48-3.71-2.66-.38-1.44-.83-2.87-1.06-4.34-.4-2.57-.74-5.16-.94-7.75-.13-1.71.04-1.85 1.71-2.32 1.12-.32 2.29-.43 3.42-.71 1.84-.46 3.72-.84 5.48-1.52 1.9-.73 2.05-2.85.48-4.15-.93-.77-1.99-.94-3.11-.8-1.76.22-3.52.47-5.27.79-2.47.45-4.95.86-7.37 1.52-3.41.92-3.77 1.59-2.98 5.06.83 3.63 1.82 7.22 2.67 10.84.41 1.74.7 3.52.93 5.3.21 1.63-.66 2.71-2.05 3.4-.44.22-.9.38-1.37.55-5.59 2.03-11.19 4.04-16.78 6.08-2.88 1.05-3.99.71-5.38-2.03-1.51-2.98-2.91-6.03-4.35-9.05-.13-.28-.24-.57-.33-.87-.58-1.79-.33-2.65 1.23-3.64.82-.53 1.73-.92 2.62-1.35.88-.43 1.78-.82 2.68-1.23 1.61-.73 2.02-2.46 1.27-4.12-.7-1.54-1.66-1.86-3.52-1.2-.17.06-.35.11-.52.19-2.68 1.23-5.37 2.45-8.03 3.72-.83.4-1.57.96-2.37 1.42-1.01.59-1.32 1.49-.97 2.53.39 1.17.86 2.32 1.42 3.42 2.11 4.14 4.3 8.24 6.41 12.38 1.48 2.91 1.3 3.53-1.33 5.32-4.68 3.19-9.37 6.37-14.05 9.55-2.31 1.56-2.99 1.47-4.85-.61-.08-.09-.16-.19-.24-.28-1.99-2.45-3.98-4.9-5.95-7.36-.38-.48-.74-1-1-1.55-.63-1.3-.55-2.56.53-3.59.85-.81 1.79-1.5 2.67-2.28.83-.73 1.71-1.44 2.41-2.28.79-.96.67-2.46-.09-3.47-.68-.92-1.68-1.18-2.98-.7-.51.19-1.01.47-1.44.8-2.4 1.83-4.79 3.67-7.15 5.56-.76.61-1.46 1.33-2.11 2.07-.72.82-.84 1.81-.35 2.78.39.77.85 1.52 1.39 2.18 1.38 1.67 2.82 3.28 4.24 4.92 1.82 2.1 3.69 4.17 5.46 6.31 1.92 2.31 1.85 3.61-.16 5.86-.78.87-1.64 1.68-2.42 2.55-3.8 4.31-7.57 8.65-11.39 12.94-1.87 2.1-3.3 2.31-5.63.72-2.64-1.81-5.2-3.74-7.78-5.64-.39-.29-.76-.64-1.08-1-1.12-1.26-1.27-2.3-.38-3.71.73-1.15 1.62-2.18 2.43-3.28.84-1.14 1.76-2.25 2.49-3.46.74-1.23.31-2.55-.97-3.56-1.19-.94-2.22-1.01-3.27.15-3.54 3.89-6.64 8.14-9.4 12.63-.78 1.27-.47 2.55.51 3.59.58.62 1.28 1.16 1.99 1.63 3.54 2.34 7.11 4.64 10.66 6.98.72.47 1.43.98 2.06 1.55 1.53 1.39 1.75 2.42.99 4.32-.25.63-.59 1.23-.89 1.84l-8.64 18.12c-.37.78-.79 1.55-1.14 2.34-.38.88-1.05 1.16-1.93 1.04-.49-.06-1-.06-1.45-.22-3.48-1.21-6.97-2.37-10.4-3.72-2.14-.84-2.65-1.99-2.09-4.3.33-1.38.97-2.67 1.41-4.03.38-1.17.74-2.36.99-3.56.26-1.24-.46-2.17-1.31-2.91-1.15-1-2.42-.78-3.27.51-.4.62-.76 1.29-1.02 1.98-1.51 4-2.99 8.02-4.47 12.03-.13.35-.22.71-.28 1.08-.3 1.93.14 2.75 1.93 3.5.62.26 1.27.46 1.91.66 4.52 1.37 9.05 2.69 13.56 4.11 2.67.84 3.5 2.26 3.08 5.08-.26 1.72-.54 3.44-.95 5.13-.81 3.32-1.49 6.66-1.7 10.09a18.99 18.99 0 0 1-.69 4.03c-.58 2.03-1.53 2.77-3.62 2.74-3.43-.05-6.86-.23-10.29-.36-.3-.01-.61-.08-.91-.15-1.73-.38-2.44-1.1-2.59-2.89-.11-1.23-.02-2.48-.03-3.73 0-1.06 0-2.11-.01-3.17-.01-1.1-.41-1.94-1.51-2.29-1.2-.39-2.31-.02-3.03 1.12-.42.67-.81 1.43-.97 2.19-.78 3.67-.9 7.4-.75 11.13.05 1.38.62 2.02 1.98 2.32.95.21 1.94.3 2.91.32 2.33.06 4.66.01 6.99.09 2.27.07 4.53.21 6.79.39 2.98.25 3.94 1.33 4.03 4.38.09 2.86.18 5.71.31 8.57.04.93.16 1.86.31 2.77.29 1.83.74 3.65.92 5.49.2 2.06-.22 2.63-2.11 3.39-3.95 1.58-8.13 1.77-12.29 1.99-1.95.1-2.92-.88-3.32-2.81-.2-.97-.19-1.97-.31-2.96-.11-.92-.11-1.89-.42-2.74-.23-.64-.75-1.32-1.32-1.66-1.78-1.06-4.46.06-4.27 2.51.34 4.59 1.29 9.09 2.26 13.56.35 1.61 1.51 2.03 3.16 1.59 1.12-.3 2.23-.67 3.36-.91 3.23-.7 6.47-1.38 9.72-2.03 1.14-.23 2.29-.45 3.45-.53 2.35-.16 3.55.73 4.2 2.99.33 1.13.59 2.29.95 3.41 1.74 5.37 3.49 10.74 5.28 16.09 1.06 3.18.57 4.61-2.39 6.04-2.87 1.39-5.8 2.68-8.7 4-2.28 1.04-3.49.62-4.72-1.87-.66-1.33-1.11-2.76-1.71-4.12-.42-.96-.83-1.95-1.42-2.8-.81-1.16-2.5-1.42-3.83-.77-1.21.59-1.5 1.46-1.06 3.17.05.18.11.36.18.53 1.78 4.23 3.49 8.49 5.39 12.66 1.2 2.65 2.61 3.01 5.24 1.76.28-.13.54-.29.82-.43 4.09-2.13 8.18-4.25 12.28-6.37.49-.25 1-.48 1.51-.69 1.42-.58 2.68-.28 3.66.88.71.85 1.3 1.8 1.92 2.72 3.45 5.14 6.89 10.28 10.34 15.42.41.62.89 1.19 1.29 1.82.67 1.08.65 3.49-.12 4.19-2.92 2.65-5.85 5.31-8.87 7.85-1.38 1.16-3.01.94-4.29-.4-.98-1.02-1.82-2.18-2.73-3.27-.83-1-1.61-2.04-2.51-2.97-.96-.99-1.81-1.02-2.98-.3-1.79 1.11-2.11 2.87-.63 4.78 2.61 3.37 5.34 6.65 8.04 9.95.39.48.85.9 1.33 1.29 1.32 1.08 2.07 1.09 3.45.03.63-.49 1.21-1.05 1.79-1.6 3.12-2.99 6.23-5.99 9.36-8.97.76-.72 1.58-1.38 2.43-1.98 1.01-.71 2.09-.66 3.1.01.51.34.97.75 1.44 1.15 4.25 3.67 8.49 7.34 12.74 11.01.56.48 1.14.95 1.67 1.47 1.76 1.75 1.94 2.66.62 4.74-1.86 2.92-3.86 5.76-5.81 8.62-.21.31-.47.58-.72.84-1.38 1.43-2.21 1.58-3.89.54-1.04-.65-1.97-1.48-3-2.15-.82-.53-1.67-1.06-2.59-1.36-1.22-.4-2.51.23-3.16 1.32-.61 1.01-.51 1.97.46 3.05.66.73 1.4 1.4 2.19 1.98 2.18 1.61 4.39 3.18 6.62 4.71 2.7 1.85 3.62 1.69 5.41-1.01 1.51-2.27 2.88-4.62 4.34-6.92 1.56-2.46 3.08-4.94 4.74-7.33 1.34-1.93 1.8-1.99 3.83-.97 5.05 2.54 10.1 5.08 15.14 7.64 3.14 1.59 3.55 2.64 2.32 5.92-1 2.67-2.04 5.33-3.14 7.96-.57 1.32-1.29 2.55-2.09 4.13zm563.08-98.53c-4.47-9.48-8.9-18.9-13.35-28.35h-5.23v28.44h-26.51c-.58-2.25-.78-78.37-.19-82.97.83-.07 1.71-.2 2.59-.2 10.61-.01 21.22-.04 31.83.01 6.16.03 12.21.91 17.99 3.17 14.65 5.71 20.81 22.1 13.7 36.35-1.84 3.69-4.53 6.6-7.93 8.85-.85.56-1.71 1.1-2.9 1.86 6.14 10.85 12.25 21.65 18.38 32.47-2.27.8-23.3 1.05-28.38.37zm-18.44-49.01c2.77.65 8.19.62 10.4-.01 3.1-.9 4.72-3.18 4.76-6.7.04-3.54-1.48-5.93-4.56-6.83-3.45-1.01-6.97-.71-10.59-.43-.01 4.84-.01 9.43-.01 13.97zm-92.39 36.72c-1.07 4.19-2.1 8.25-3.17 12.43h-28.43c8.56-27.79 17.03-55.32 25.56-83.01h35.52c8.45 27.44 16.94 54.99 25.42 82.54-2.31.76-24.39.95-28.34.27-1.05-3.96-2.13-8.02-3.24-12.23h-23.32zm18.06-21.19c-2.05-8.06-4.04-15.88-6.04-23.7l-.63.03c-1.98 7.82-3.95 15.63-5.98 23.67h12.65zm281.47 33.6h-28.41c-1.09-4.09-2.18-8.15-3.31-12.4H805.8l-3.27 12.39h-27.82c.01-2.28 23.39-79 25.31-83.09h35.16c8.48 27.56 16.99 55.18 25.59 83.1zm-37.32-33.61c-.4-4.63-5.05-21.82-6.41-23.41-1.85 7.86-4.14 15.47-5.76 23.41h12.17zm-293.12-22.67c-.47-11.62-6.05-19.66-16.78-23.91-5.28-2.09-10.8-2.97-16.45-3-10.7-.04-21.4-.01-32.11 0-.78 0-1.56.13-2.41.21v82.78c3.79.67 24.37.51 26.76-.25v-25.03c3.46 0 6.5.08 9.53-.01 5.64-.18 11.13-1.25 16.31-3.61 8.11-3.7 13.21-9.88 14.65-18.86.44-2.72.62-5.55.5-8.32zm-27.44 4.19c-.36 2.96-2.1 5.01-4.98 5.53-2.65.49-5.38.49-8.4.74V139.4c3.07-.6 5.97-.4 8.84.32.68.16 1.35.51 1.9.93 3.1 2.29 3.05 5.61 2.64 8.95zm-121.35 38.21c6.05-4.22 11.83-8.26 17.71-12.36.96.85 1.78 1.59 2.63 2.31 4.23 3.56 8.99 5.68 14.6 5.27 1.3-.1 2.66-.37 3.84-.89 3.18-1.4 3.64-5.09.91-7.23-1.11-.87-2.42-1.56-3.74-2.06-3.34-1.27-6.72-2.43-10.1-3.56-4.48-1.48-8.74-3.35-12.73-5.94-14.19-9.19-14.51-34.5 3.33-42.79 5.4-2.51 11.07-3.49 16.94-3.52 7.23-.03 14.21 1.19 20.74 4.49 4.43 2.23 8.25 5.21 11.58 9.43-5.66 4-11.14 7.87-16.69 11.79-2.84-2.76-5.84-4.93-9.65-5.28-1.99-.18-4.06.03-6.04.38-1.57.28-2.77 1.37-3.13 3.06-.38 1.8.26 3.34 1.69 4.36 1.32.94 2.76 1.79 4.27 2.37 3.52 1.36 7.16 2.41 10.66 3.82 3.59 1.44 7.19 2.94 10.59 4.78 15.33 8.29 14.51 31.1 1.88 40.08-4.61 3.28-9.68 5.25-15.18 6.19-9.01 1.55-17.89 1.05-26.54-2.08-6.86-2.49-12.63-6.59-17.57-12.62zm372.33 13.87h-26.9v-61.35c-3.8-.03-7.32-.06-10.85-.08-3.57-.01-7.13 0-10.64 0-.69-2.33-.83-17.62-.22-21.55h70.4v21.38c-3.47.38-7 .12-10.53.16-3.56.05-7.13.01-11.1.01-.32 4.14-.11 8.13-.14 12.12-.04 4.14-.01 8.28-.01 12.41v24.51c-.01 4.02-.01 8.04-.01 12.39z"/><path class="st0" d="M160.08 286.13c-4.63-.27-9.57-.21-14.41-.88-26.13-3.66-48.88-14.53-67.84-33.26-15.09-14.9-25.45-32.71-31.28-53.21-1.56-5.5-2.46-11.13-3.38-16.78-1.43-8.79-1.54-17.6-.68-26.39 2.84-28.94 14.09-53.97 34.45-74.6 16.2-16.42 35.58-27.04 57.89-32.25 4.57-1.07 9.16-1.65 13.82-1.91 2.87-.17 5.74-.53 8.61-.72 4.36-.3 8.7.12 13.03.55 3.11.31 6.25.39 9.34.88 6.86 1.08 13.53 2.97 20.07 5.29 36.04 12.83 64.13 43.28 74.42 80.57 1.87 6.78 3.19 13.68 3.96 20.64.57 5.17.61 10.44.43 15.65-.85 24.93-8.47 47.57-23.12 67.62-15.77 21.58-36.44 36.22-61.86 43.93-6.36 1.93-12.86 3.19-19.41 4.08-4.53.62-9.16.54-14.04.79zm.24-6.45c3.75-.1 7.67-.19 11.6-.31.73-.02 1.47-.1 2.19-.24 3.9-.79 7.82-1.52 11.69-2.44 10.88-2.58 21.15-6.73 30.79-12.46 9.36-5.56 17.8-12.3 25.2-20.37 4.82-5.25 9.18-10.85 12.96-16.91 5.83-9.35 10.33-19.31 13.24-29.99.2-.72.4-1.43.58-2.15.66-2.64 1.33-5.28 1.93-7.93.23-1.02.2-2.11.41-3.14.87-4.39 1.36-8.82 1.5-13.3.18-5.72.05-11.43-.62-17.11-.33-2.83-.76-5.67-1.37-8.45-.78-3.56-1.69-7.11-2.71-10.6-8.02-27.35-23.99-48.68-47.53-64.2-9.94-6.55-20.76-11.14-32.22-14.17-.94-.25-1.88-.53-2.83-.74-1.97-.44-3.93-.96-5.93-1.22-4.01-.54-8.03-.91-12.05-1.39-3.72-.44-7.44-.72-11.18-.25-4.56.58-9.14.99-13.69 1.62-2.84.39-5.68.94-8.46 1.63-2.48.62-4.88 1.59-7.34 2.3-8.31 2.41-16.05 6.12-23.44 10.6-9.8 5.95-18.52 13.23-26.12 21.91-13.68 15.61-22.37 33.72-26.51 54.12-.36 1.76-.31 3.6-.7 5.34-1.94 8.47-1.79 17.01-1.15 25.59.3 4.09 1.79 8.01 1.7 12.15-.01.24.08.49.15.73 1.16 4.24 2.15 8.54 3.52 12.72 6.29 19.27 16.7 35.84 31.66 49.44 8.94 8.12 18.83 14.7 29.8 19.61 8.05 3.6 16.42 6.16 25.06 7.82 2.71.52 5.41 1.2 8.14 1.42 3.82.32 7.7.27 11.73.37z"/><path class="st0" d="M151.39 94.95c3.19.13 6.37.24 9.56.4.54.03 1.07.23 1.61.34 1.22.25 1.93-.18 2.2-1.32.25-1.04-.26-2.07-1.29-2.35-.82-.22-1.69-.33-2.54-.41-12.28-1.17-24.48-.58-36.65 1.37-9.27 1.49-18.44 3.41-27.58 5.54a15 15 0 0 1-1.63.28c-1.19.12-2.59-1.49-1.67-2.89.41-.62.86-1.21 1.34-1.77 3.37-4.03 6.7-8.09 10.15-12.05 1.74-1.99 3.88-3.35 6.66-3.47 4.01-.18 8.03-.39 12.03-.79 8.64-.86 17.28-.62 25.91-.22 6.36.29 12.72.92 19.03 1.84 3.67.53 7.24 1.83 10.8 2.97 1.18.38 2.26 1.25 3.22 2.08 1.94 1.68 4.05 2.67 6.64 2.8 2.2.11 4.38.5 6.57.8 4.67.64 8.45 3.13 11.98 6.07.75.62 1.43 1.33 2.12 2.02 2.82 2.83 6.25 4.51 10.03 5.6 2.99.86 5.97 1.82 8.87 2.96 3.25 1.28 6.4 2.83 9.59 4.25 1.12.5 2.27.93 3.38 1.46 3.2 1.54 4.08 6.13 1.42 8.43-1.69 1.47-2.16 3.18-2.32 5.2-.07.87-.11 1.74-.28 2.59-.28 1.45-.85 1.99-2.27 1.83-1.82-.2-3.64-.5-5.4-1-4.25-1.2-8.47-2.47-12.85-3.15-8.62-1.34-17.12-.7-25.54 1.39-6.89 1.71-13.5 4.17-19.37 8.3-9.31 6.57-16.11 15.16-20.22 25.93-1.35 3.53-2.9 6.99-3.7 10.71-2.54 11.78-2.18 23.47 2.44 34.61 5.73 13.83 15.68 23.24 30.22 27.18 1.59.43 3.22.7 4.83 1.05 1.52.33 3.33 2.52 3.61 4.34.48 3.07 1.4 6.02 2.71 8.81.49 1.03 1.43 1.84 2.1 2.79.67.95 1.4 1.89 1.85 2.94.49 1.15.11 1.98-1.05 2.35-1.08.35-2.29.66-3.39.52-5.53-.73-11.04-1.6-16.55-2.46-.84-.13-1.65-.46-2.46-.74-2.08-.7-2.95-2.27-3.06-4.4-.11-2.16-.19-4.32-.36-6.48-.06-.79-.24-1.6-.5-2.35-.28-.82-.92-1.32-1.83-1.29-.98.03-1.92.82-2.14 1.75-.07.3-.12.62-.08.92.29 2.27.51 4.55.93 6.8.28 1.53-.15 2.78-1.5 3.09-3.06.7-5.83.05-8.16-2.12-1.17-1.09-1.8-2.47-1.8-4.14-.01-4.57.61-9.04 2.03-13.38.46-1.39-.17-2.83-1.52-3.25-.3-.09-.78-.05-1 .15-.54.47-1.09 1.01-1.44 1.63-.36.63-.62 1.38-.71 2.1-.42 3.51-1.41 6.94-1.2 10.53.05.85-.14 1.74-.38 2.56-.5 1.74-1.8 2.5-3.53 2.09-1.13-.27-2.24-.65-3.36-.97-1.58-.45-2.54-1.7-3.52-2.88-.27-.33-.37-.94-.31-1.4.41-3.2.61-6.46 1.39-9.57.99-3.96 2.46-7.8 3.75-11.69.13-.39.48-.71.69-1.08.54-.93.22-2.38-.65-3-.82-.58-1.84-.39-2.36.52-.37.64-.65 1.34-.95 2.02-2.67 5.98-4.78 12.11-5.14 18.75-.05.84-.33 1.7-.66 2.48-.64 1.53-2.22 2.08-3.66 1.35-1.14-.58-2.35-1.1-3.37-1.87-1.35-1.02-2.35-2.32-2.09-4.27 1.06-7.94 2.91-15.62 6.86-22.66 1.75-3.13 3.4-6.33 5.08-9.5.62-1.18.46-2.24-.38-2.84-.9-.64-2.18-.32-3.01.87-2.57 3.73-4.67 7.73-6.47 11.9-2.34 5.44-3.73 11.17-4.99 16.94-.09.42-.14.87-.12 1.3.1 1.7-.82 2.74-2.19 3.42-1.17.58-2.28.09-3.3-.53-.95-.58-1.79-1.35-2.78-1.82-2.08-1-2.75-3.82-2.26-5.6 2.09-7.48 4.39-14.88 8.24-21.68 2.75-4.86 5.53-9.68 9.47-13.7 1.16-1.18 2.12-2.58 3.1-3.92 1-1.37 1.04-2.29.23-2.97-.97-.83-1.99-.68-3.21.53-4.5 4.47-8.19 9.57-11.36 15.07-3.86 6.69-6.65 13.84-8.82 21.25-.29 1-.75 1.97-1.28 2.86-.68 1.14-1.88 1.57-3.02.93-1.75-1-3.52-2.05-5.04-3.37-1.7-1.48-1.78-3.61-1.22-5.69 1.34-4.99 3.12-9.81 5.38-14.46 5.71-11.78 13.54-21.87 23.58-30.17 1.13-.94 2.38-1.74 3.64-2.51.74-.45 1.28-.92 1.22-1.88-.06-.97-.61-1.67-1.36-2.08-.37-.2-1.15-.09-1.5.19-4.43 3.53-9.04 6.83-12.9 11.06-7.35 8.06-13.41 16.96-17.45 27.2-.86 2.18-1.68 4.39-2.54 6.57-.23.57-.51 1.13-.79 1.68-1.11 2.15-3.75 2.36-5.1.79-1.83-2.14-3.45-4.5-4.92-6.92-.82-1.36-.57-3.03.01-4.52.29-.75.65-1.48 1.08-2.15 4.35-6.62 8.6-13.31 13.11-19.82 5.88-8.48 13.35-15.38 21.56-21.48 1.87-1.39 3.97-2.47 5.96-3.69 2.15-1.32 4.34-2.58 6.45-3.96 1.32-.86 1.45-2.32.34-3.28-.34-.3-1.07-.48-1.47-.32-1.69.69-3.35 1.46-4.98 2.31-7 3.63-13.1 8.5-18.75 13.99-6.09 5.92-11.43 12.48-16.25 19.48-2.84 4.13-5.58 8.33-8.29 12.55-.82 1.28-1.91 1.88-3.32 2-.95.08-1.6-.27-2.02-1.23-.87-1.99-1.83-3.93-2.77-5.88-.87-1.81-.91-3.68.04-5.39 7.22-12.97 15.47-25.1 27.38-34.23 8.5-6.51 17.8-11.42 28.04-14.43 1.63-.48 3.33-.72 4.99-1.12.46-.11.93-.29 1.31-.58 1.01-.77 1.24-1.5.85-2.39-.39-.89-1.13-1.28-2.29-1.11-.85.13-1.68.33-2.52.53-16.8 3.92-31.1 12.17-42.72 25.16-4.91 5.49-9.54 11.2-13.61 17.36-.36.55-.76 1.2-1.31 1.49-1.42.74-2.86.02-3.17-1.63-.44-2.38-.78-4.78-1.06-7.18-.2-1.73-.23-3.47-.36-5.21-.14-1.88.32-3.51 1.65-4.89 9.54-9.92 19.79-18.97 31.67-25.94 4.67-2.74 9.57-4.97 14.73-6.69 5.67-1.89 11.49-2.95 17.32-4.03 2.15-.4 4.39-.25 6.59-.33.37-.01.73.05 1.1.07.93.05 1.52-.51 1.85-1.26.32-.71.23-1.49-.43-2.04-.42-.34-.87-.69-1.37-.86-5.93-2-11.04-5.35-15.42-9.81-1.32-1.35-2.3-3.05-3.42-4.59-.11-.15-.19-.32-.26-.49-.88-1.88-.32-3.02 1.71-3.24 3.84-.42 7.68-.84 11.53-1.07 2.69-.17 5.39-.03 8.09-.03.03 0 .03-.03.02-.06zm38.76 2.73c.23.63.37 1.31.7 1.88.91 1.62 2.25 2.73 4.03 3.31 2.66.88 5.53 1.01 8.06 2.42.42.23 1.4-.04 1.8-.42.54-.51.92-1.3.45-2.2-.34-.64-.59-1.34-.81-2.03-.57-1.73-1.6-3.05-3.24-3.84-.72-.34-1.42-.73-2.17-.99-2.52-.84-5.04-.74-7.54.15-.8.3-1.24.79-1.28 1.72z"/><path class="st0" d="M207.65 208.76c-1.92-3.27-.62-6.21 2.99-6.82 1.56-.26 3.15-.37 4.73-.43 1.44-.05 2.71.97 3 2.29.33 1.5-.03 2.56-1.37 3.3-.85.47-1.65 1.09-2.34 1.78-1.31 1.31-1.15 2.86.13 4.2 3.72 3.89 5.38 8.45 3.82 13.8-1.63 5.59-7.44 8.49-12.99 6.99-4.55-1.23-9.22-2-13.81-3.09-3.39-.81-6.79-1.67-10.11-2.74-5.63-1.82-10.15-5.46-14.28-9.6-6.9-6.91-11.47-15.13-13.23-24.86-.15-.85-.32-1.72-.37-2.58-.38-7.82-.99-15.69 1.78-23.24 2.27-6.2 5.36-12.02 9.13-17.4 1.47-2.11 3.41-3.92 5.29-5.69 8.63-8.13 18.89-13 30.39-15.3 1.68-.34 3.4-.49 5.08-.81 2.04-.38 3.59.38 4.85 1.95.27.34.52.69.81 1.02.89 1.01 1.58.97 2.36-.11.22-.3.36-.65.59-.94 1.01-1.25 2.12-1.54 3.56-.96 1.38.56 2.04 1.48 1.86 3.05-.22 1.96-.65 3.9-.93 5.86-.09.65-.11 1.37.05 2 .27 1.07 1.81 1.48 2.66.62 1.3-1.3 2.55-2.69 3.62-4.19 1.04-1.45 1.81-3.1 2.74-4.64.38-.63.85-1.21 1.29-1.8.91-1.25 2.16-1.26 3.47-.9 1.18.33 1.82 1.04 1.73 2.29-.11 1.41-.28 2.88-.79 4.17-1.03 2.6-1.3 5.15-1.14 7.98.62 10.48.98 20.98 1.38 31.48.13 3.35-.01 6.72.2 10.07.18 2.78-2.57 5.02-4.81 4.61-1.38-.25-2.81-.26-4.21-.39-.98-.09-1.81.25-2.51.92-.9.87-.97 1.39-.42 2.79.47 1.19.15 2.73-.74 3.61-.95.94-2.46 1.34-3.56.71-2.44-1.39-5.06-1.33-7.68-1.05-3.56.38-6.7 1.91-9.56 4.04-2.18 1.63-3.39 3.91-3.94 6.53-.71 3.34 1.38 5.43 4.09 6.32 2.77.91 5.55-.45 6.63-3.16.17-.52.34-1.05.56-1.68zM228 171.42c.05 0 .09 0 .14-.01-.21-4.27-.42-8.53-.62-12.8-.01-.19-.03-.37-.05-.56-.19-1.34-.84-2.09-2.01-2.33-1.27-.25-2.39.18-2.96 1.33-1.12 2.24-2.65 4.27-2.54 7.05.08 1.87-1.6 2.93-3.45 2.66-1.39-.21-2.31-1.03-3.02-2.21-.93-1.56-2.23-2.48-4.03-2.96-1.37-.37-2.81-.48-4.13-1.26-1.19-.71-1.58-1.56-1.66-2.84-.08-1.3.43-2.22 1.54-2.7 1.96-.85 3.91-1.85 5.97-2.3 2.86-.62 5.82-.84 8.74-1.14 1.66-.17 3.27-.49 4.77-1.24 1.3-.65 1.97-1.84 2.19-3.2.21-1.35-.9-2.4-2.25-2.24-.97.11-1.92.31-2.87.53-1.78.4-3.53.99-5.33 1.24-3.26.47-6.54.85-9.83 1.07-2.83.19-4.62 1.71-5.96 4.04-5.12 8.87-11.71 16.21-20.96 20.82-5.03 2.51-5.85 10.32-2.4 13.41 1.23 1.11 2.41 2.33 3.39 3.67 1.51 2.08 2.59 4.25 1.31 7.04-1.31 2.83-.39 5.57 2.11 7.83.71.65 1.45.83 2.35.71 2.61-.35 3.97-2.09 4.63-4.45.58-2.06 1.54-3.87 2.74-5.63 3.4-4.95 7.91-8.26 13.62-9.86 2.97-.83 5.95-1.11 9.08-.59 2.75.45 5.61.42 8.41.34 2.29-.06 3.38-1.42 3.47-3.75.03-.74.01-1.49-.02-2.24-.11-2.48-.24-4.95-.37-7.43zM75.79 143.55c.53-3.81 1.02-7.62 1.62-11.42.27-1.72 1.18-3.03 2.73-3.98 10.15-6.23 20.72-11.51 31.99-15.37 5.43-1.86 10.95-3.17 16.55-4.19 2.27-.41 4.23.2 5.8 2.01.39.45.91.84 1.45 1.08.9.4 1.48 1.01 1.28 1.99-.2.98-.64 1.87-1.8 2.13-2.03.45-4.07.9-6.08 1.44-8.3 2.23-16.04 5.75-23.3 10.39-8.57 5.48-16.68 11.6-24.35 18.32-.42.37-.82.74-1.25 1.1-.9.74-1.83 1.2-3.02.55-1.1-.6-1.64-1.42-1.44-2.71.07-.42.01-.87.01-1.3-.06-.02-.13-.03-.19-.04zm45.87-46c.43 0 .86-.01 1.29 0 .94.01 1.57.44 2.02 1.33.41.82.93 1.62 1.55 2.27.89.92 1.42 1.91.97 3.17-.42 1.2-1.33 1.82-2.58 2.1-3.64.82-7.31 1.56-10.89 2.62-7.78 2.3-15.16 5.66-22.44 9.26-1.76.87-3.45 1.87-5.17 2.81-.22.12-.43.24-.65.35-1.43.71-2.53.62-3.55-.37-1.01-.98-1.08-2.26-.61-3.43 1.19-2.92 2.5-5.8 3.85-8.65.46-.97.65-2.08 1.63-2.85.84-.66 1.63-1.26 2.67-1.51 7.43-1.84 14.84-3.76 22.29-5.52 3.15-.74 6.38-1.16 9.57-1.72.03.04.04.09.05.14z"/></svg>