<svg version="1.1" id="Слой_1" xmlns="http://www.w3.org/2000/svg" x="0" y="0" viewBox="0 0 316 321.42" xml:space="preserve"><style>.st0{fill:#fff}</style><path class="st0" d="M150.36 8.42c.27 1.01.69 1.92.73 2.85.17 3.65.31 7.3.31 10.94-.01 2.58-.83 3.34-3.38 3.56-1.09.09-2.2-.03-3.28.12-1.19.16-2.4.41-3.53.81-1.23.44-1.7 1.48-1.6 2.78.09 1.13.7 1.84 2.05 2.24.58.17 1.2.33 1.79.3 3.71-.16 7.41-.42 11.11-.57 2.24-.09 3.87-2.06 3.9-4.28.03-2.62.02-5.23.06-7.85.03-2.55.07-5.11.14-7.66.02-.54.15-1.08.27-1.61.48-2 .95-2.4 3.05-2.25 1.88.13 3.75.41 5.62.59 3.69.37 7.4.6 11.07 1.1 4.09.56 8.17 1.26 12.21 2.08 2.33.47 2.88 1.56 2.38 3.86-.59 2.67-1.2 5.34-1.83 8-.15.65-.37 1.29-.62 1.91-.98 2.45-1.48 2.83-4.08 2.72-1.7-.07-3.39-.32-5.08-.48-.54-.05-1.09-.08-1.64-.07-1.05.01-1.96.32-2.28 1.43-.33 1.12-.2 2.19.73 3.01.41.36.87.68 1.37.88.73.3 1.49.52 2.26.69 3.02.67 6.06 1.29 9.08 1.97 1.81.41 2.44.24 3.27-1.4.62-1.24 1.1-2.57 1.5-3.9 1.25-4.13 2.4-8.3 3.65-12.43 1.02-3.37 1.66-3.82 4.99-2.59 6.22 2.29 12.35 4.8 18.51 7.25 1.24.49 2.47 1.05 3.62 1.72 1.94 1.13 2.37 2.44 1.34 4.45-1.72 3.36-3.54 6.66-5.4 9.94-.87 1.53-1.28 1.66-3 1.21-1.05-.27-2.03-.79-3.05-1.17-.85-.32-1.69-.71-2.57-.87-1.52-.27-2.69.44-3.23 1.78-.48 1.2-.13 2.1 1.24 3.07.55.38 1.12.74 1.71 1.05 1.99 1.05 3.98 2.1 6 3.1 2.17 1.08 3.49.77 4.79-1.28 1.5-2.36 2.87-4.8 4.32-7.2 1.47-2.45 3-4.87 4.42-7.35.74-1.3 1.81-1.54 3.09-1.19.69.19 1.39.49 1.97.9 5.65 4.02 11.27 8.08 16.91 12.13.05.04.1.08.14.11 3.14 2.55 3.26 3.71.66 6.73-1.75 2.03-3.52 4.04-5.29 6.05-.36.41-.74.81-1.13 1.19-1.65 1.62-2.2 1.69-4.09.4-.8-.55-1.53-1.2-2.3-1.79-.77-.59-1.52-1.22-2.34-1.74-1.53-.96-2.21-.89-3.22.19-1.05 1.11-1.23 2.67-.38 3.84.39.54.87 1.02 1.37 1.46 2.16 1.87 4.35 3.72 6.53 5.56.32.27.67.52 1.03.75 1.34.85 2.04.85 3.32-.12.58-.44 1.11-.95 1.62-1.47 3.14-3.23 6.26-6.48 9.4-9.71.68-.7 1.38-1.38 2.16-1.96 1.03-.77 1.79-.76 2.84.01.58.43 1.11.95 1.61 1.48 6.06 6.52 11.68 13.4 16.91 20.59 2.6 3.58 1.73 4.04-1.07 5.9-2.38 1.58-4.79 3.13-7.19 4.68-.56.36-1.15.68-1.76.95-1.25.55-2.41.37-3.32-.66-.84-.96-1.59-1.99-2.38-3-.83-1.05-1.59-2.16-2.51-3.13-1.05-1.1-2.05-1.14-3.29-.38-1.14.7-1.61 1.82-1.22 3.14.15.51.43 1.01.73 1.46 2.06 3.09 4.11 6.19 6.23 9.23 1.83 2.61 2.7 2.8 5.46 1.24 3.97-2.25 7.91-4.56 11.86-6.83.79-.45 1.58-.92 2.42-1.27 1.56-.65 2.65-.3 3.64 1.09.38.54.69 1.15.99 1.74 4.02 8.06 7.56 16.34 10.61 24.82.08.23.17.46.24.69.68 2.35.32 3.23-2.03 4.02-3.69 1.23-7.43 2.3-11.15 3.45-.94.29-1.74.04-2.29-.69-.58-.77-1.07-1.62-1.45-2.5-.48-1.11-.73-2.33-1.24-3.43-.46-.98-1.05-1.92-1.73-2.75-.7-.86-1.66-.85-2.66-.41-.99.43-1.64 1.05-1.45 2.22.18 1.14.27 2.3.58 3.4.71 2.45 1.54 4.87 2.33 7.3.09.29.19.58.31.86 1.14 2.8 2.3 3.52 5.22 2.86 4.21-.95 8.38-2.06 12.57-3.09 1.06-.26 2.12-.59 3.19-.7 1.78-.19 2.33.14 2.88 1.81.57 1.73 1.08 3.5 1.39 5.28.77 4.49 1.46 9 2.1 13.52.27 1.92.35 3.88.46 5.82.03.6-.11 1.21-.21 1.81-.2 1.18-.95 1.87-2.11 1.92-3.89.18-7.78.37-11.67.41-1.77.02-2.97-1.01-3.38-2.78-.19-.83-.25-1.68-.41-2.52-.21-1.07-.36-2.17-.74-3.18-.51-1.34-1.66-1.73-2.98-1.15-1.12.5-1.86 1.35-2.12 2.57-.06.3-.12.61-.08.91.39 3.13.71 6.28 1.22 9.39.26 1.6 1.07 2.17 2.87 2.25 2.8.13 5.6.14 8.4.17 2.56.03 5.11-.01 7.67.05 3.03.07 3.61.68 3.62 3.7.02 5.79-.39 11.54-1.56 17.23-.34 1.66-.38 3.38-.62 5.07-.34 2.38-1.26 3.15-3.69 3.04-1.15-.05-2.31-.21-3.43-.44-2.44-.51-4.87-1.08-7.29-1.68-1.92-.47-2.53-1.27-2.47-3.24.03-1.09.26-2.17.31-3.27.06-1.15.14-2.32-.02-3.44-.2-1.4-.92-2.01-2.12-2.13-1.26-.12-2.31.29-2.92 1.43-.31.58-.51 1.24-.63 1.89-.57 3.04-1.13 6.09-1.64 9.15-.53 3.22-.2 2.99 2.2 3.9 2.2.84 4.55 1.28 6.85 1.87 2.94.75 5.89 1.47 8.84 2.22.41.1.82.24 1.21.41 2.16.92 2.54 1.49 1.87 3.78-.85 2.92-1.81 5.81-2.88 8.65-2.03 5.41-4.13 10.79-6.29 16.15-.47 1.16-1.24 2.22-1.97 3.25-.53.75-1.36 1.03-2.28.72-.92-.31-1.86-.58-2.72-1.01-2.12-1.05-4.21-2.19-6.31-3.29-3.69-1.94-4.22-3.59-2.37-7.37.69-1.42 1.44-2.82 1.98-4.3.77-2.11-.92-4.1-3.15-3.74-.53.08-1.12.49-1.46.92-.6.76-1.07 1.62-1.51 2.49-1.39 2.77-2.76 5.55-4.1 8.36-1.59 3.34-1.2 4.55 1.99 6.4 3.79 2.2 7.59 4.37 11.37 6.59.89.52 1.76 1.11 2.5 1.81 1.14 1.08 1.22 1.84.54 3.26-.23.49-.52.96-.82 1.42-4.76 7.23-9.86 14.19-15.47 20.78-.63.74-1.29 1.47-2.01 2.11-1.2 1.05-1.93 1.08-3.3.25-.36-.22-.73-.46-1.03-.75-2.55-2.44-5.12-4.86-7.61-7.36-1.46-1.47-1.47-2.7-.18-4.37.78-1.01 1.68-1.93 2.49-2.92.66-.8 1.33-1.59 1.88-2.46.77-1.19.63-2.22-.27-3.14-1.02-1.04-2.34-1.3-3.47-.56-.66.43-1.26.96-1.8 1.54-2.23 2.41-4.46 4.83-6.64 7.29-1.8 2.03-1.86 3.24-.02 5.25 2.96 3.23 6.05 6.34 9.07 9.52.96 1.01 1.95 2.02 2.78 3.13.95 1.26.89 1.7-.11 2.9-.5.61-1.05 1.2-1.66 1.69-5.68 4.48-11.39 8.94-17.09 13.4l-.3.21c-2.91 2-4.24 1.82-6.18-1.09-1.79-2.68-3.47-5.44-5.08-8.23-1.26-2.19-1.01-3.11.97-4.66.77-.6 1.63-1.07 2.37-1.7.64-.54 1.27-1.16 1.72-1.85.71-1.08.51-2.22-.36-3.17-.83-.9-1.76-1.11-2.97-.59-.67.29-1.33.62-1.93 1.02-1.98 1.31-3.96 2.62-5.88 4.02-2.04 1.48-2.3 2.45-1.08 4.65 2.26 4.1 4.63 8.14 6.94 12.22.54.95 1.08 1.91 1.46 2.93.52 1.38.27 2.13-.89 3.04-.57.44-1.21.83-1.87 1.13-6.3 2.89-12.58 5.83-18.93 8.6-3.66 1.6-4.59 1.1-5.96-2.66-.98-2.69-1.86-5.41-2.78-8.11-.1-.29-.19-.58-.25-.88-.45-2.31-.05-3.22 2.07-4.26 1.47-.72 3.05-1.23 4.53-1.93 1.41-.67 1.93-1.86 1.59-3.3-.42-1.79-1.63-2.65-3.37-2.06-3.62 1.24-7.19 2.64-10.78 3.96-1.23.45-1.73 1.35-1.46 2.58.48 2.19.98 4.39 1.59 6.55.94 3.34 1.97 6.65 2.95 9.97.79 2.65.15 3.87-2.46 4.73-.17.06-.34.13-.52.17-4.6.86-9.19 1.72-13.79 2.57-2.45.45-4.9.94-7.36 1.3-1.8.27-3.63.39-5.45.51-.66.05-1.34-.02-1.99-.14-1.7-.32-2.35-.93-2.47-2.66-.18-2.67-.21-5.35-.28-8.02-.03-1.09-.01-2.19.02-3.29.04-1.51.79-2.57 2.25-2.96 1.23-.33 2.49-.5 3.75-.72 1.49-.26 3.03-.38 4.47-.8 1.53-.44 1.96-1.82 1.14-3.19-.84-1.4-2.02-2.26-3.74-2.1-.79.08-1.59.12-2.35.33-2.14.58-4.31.7-6.51.71-1.03 0-2.06.15-3.09.25-1.29.13-2.16.87-2.5 2.08-.26.92-.44 1.9-.45 2.86-.05 4.32-.02 8.64-.02 12.97 0 .61.01 1.23-.08 1.82-.26 1.61-1.13 2.44-2.75 2.71-.36.06-.72.13-1.09.13-5.9-.02-11.79-.01-17.61-1.28-2.66-.58-5.43-.69-8.12-1.17-1.36-.24-2.71-.71-3.96-1.29-1.5-.7-1.66-1.15-1.29-2.77.7-3.08 1.43-6.16 2.21-9.22.24-.94.68-1.82 1.03-2.72.46-1.16 1.31-1.73 2.56-1.56 1.2.16 2.39.38 3.59.6 1.19.22 2.37.57 3.57.7 1.66.17 2.51-.55 2.83-2.17.31-1.51-.39-3.11-1.73-3.42-3.97-.92-7.95-1.79-11.95-2.53-1.79-.33-2.7.3-3.49 1.95-.39.82-.73 1.68-.99 2.55-1 3.44-1.93 6.91-2.96 10.35-.43 1.45-.95 2.89-1.58 4.26-.65 1.41-1.44 1.71-2.98 1.4-.59-.12-1.19-.28-1.75-.5-6.16-2.44-12.33-4.87-18.47-7.37-1.4-.57-2.67-1.44-4.04-2.12-.99-.49-1.22-1.29-1.03-2.27.12-.59.26-1.21.54-1.73 1.63-3.06 3.26-6.12 4.97-9.13 1.12-1.96 2.56-2.38 4.71-1.51 1.3.52 2.54 1.17 3.83 1.72 1.06.45 2.02.22 2.85-.58 1.26-1.22 1.28-2.79.04-4.02-.34-.34-.75-.64-1.17-.86-2.2-1.17-4.39-2.37-6.65-3.43-2.64-1.25-3.98-.85-5.5 1.66-2.16 3.6-4.22 7.26-6.33 10.89-.67 1.15-1.32 2.34-2.13 3.4-1.11 1.46-2.02 1.62-3.63.77-.86-.45-1.68-.98-2.47-1.55-5.33-3.84-10.68-7.65-15.95-11.58-3.03-2.26-3.12-3.6-.71-6.44 1.73-2.04 3.53-4.03 5.31-6.03.32-.36.67-.71 1.03-1.03 1.8-1.62 2.91-1.69 4.85-.28.89.64 1.72 1.36 2.61 2 .59.42 1.2.85 1.86 1.14 1.35.6 2.31.36 3.11-.63.89-1.11.95-2.37.05-3.52-.52-.67-1.14-1.27-1.78-1.83-1.93-1.67-3.89-3.31-5.85-4.96-.37-.31-.79-.57-1.18-.85-1.15-.83-2.29-.72-3.37.1-.72.55-1.39 1.18-2.03 1.83-3.01 3.1-5.98 6.24-9 9.34-.68.69-1.41 1.34-2.2 1.91-1.02.73-1.83.68-2.84-.08-.53-.4-1.02-.87-1.48-1.36-6.16-6.51-11.79-13.46-17.02-20.73-1.87-2.6-2.4-3.23 1.05-5.73 2.51-1.82 5.16-3.44 7.8-5.08 2.43-1.5 3.55-1.29 5.35.88.77.94 1.42 1.98 2.17 2.94.67.86 1.33 1.75 2.11 2.51.97.95 1.91 1 2.98.36 1.04-.62 1.68-1.85 1.39-2.94-.2-.75-.54-1.5-.97-2.15-1.81-2.74-3.65-5.46-5.54-8.15-2.48-3.54-3.63-3.37-6.78-1.53-3.94 2.31-7.9 4.57-11.87 6.82-3.3 1.88-4.52 1.56-6.19-1.84-3.96-8.09-7.62-16.31-10.58-24.83-1.06-3.04-.5-4.22 2.56-5.23 2.6-.86 5.23-1.61 7.85-2.4.52-.16 1.07-.26 1.61-.33 2.51-.33 3.56.3 4.51 2.65.8 1.97 1.59 3.94 2.43 5.89.39.9 1.03 1.48 2.15 1.27 1.09-.2 2-.66 2.36-1.75.2-.61.26-1.33.18-1.97-.11-.9-.37-1.79-.63-2.66-.69-2.27-1.39-4.53-2.16-6.78-.35-1.03-.8-2.04-1.33-2.98-.59-1.05-1.55-1.51-2.78-1.27-.65.13-1.31.25-1.96.41-4.31 1.06-8.61 2.15-12.92 3.2-.77.19-1.55.31-2.34.37-1.76.14-2.41-.29-3.05-1.94-1.05-2.69-1.43-5.52-1.82-8.36-.57-4.16-1.19-8.3-1.72-12.46-.18-1.44-.24-2.91-.22-4.37.03-1.86 1.14-3.14 3.01-3.25 3.7-.23 7.41-.36 11.12-.42 1.72-.03 2.92 1.08 3.29 2.85.2.95.24 1.93.35 2.9.07.6.05 1.22.18 1.81.41 1.92 1.27 2.5 3.27 2.28 1.67-.19 2.6-1.18 2.44-3-.26-3.09-.64-6.17-1.08-9.24-.21-1.47-1.11-2.17-2.68-2.23-2.49-.09-4.99-.1-7.48-.11-2.8-.01-5.6.02-8.4.01-.67 0-1.34-.04-2-.15-1.15-.19-1.85-.89-2.01-2.06-.09-.66-.16-1.33-.15-2 .08-5.05.13-10.09 1.22-15.07.44-2.01.5-4.1.74-6.15.08-.72.13-1.46.32-2.16.5-1.9 1.77-2.69 3.7-2.3 3.04.61 6.08 1.22 9.1 1.9.94.21 1.85.59 2.71 1.03 1.13.58 1.66 1.56 1.45 2.88-.16.96-.28 1.92-.43 2.88-.12.78-.33 1.56-.37 2.34-.09 1.77.77 2.79 2.44 3.05 1.6.24 2.89-.57 3.32-2.14.18-.64.24-1.32.36-1.97.35-1.85.7-3.69 1.04-5.54.2-1.07.41-2.15.53-3.23.16-1.46-.59-2.45-1.84-3.06-.65-.31-1.36-.52-2.07-.69-4.19-1.03-8.39-2.03-12.57-3.07-.94-.23-1.87-.54-2.77-.91-1.86-.76-2.28-1.48-1.71-3.39 1.12-3.72 2.25-7.46 3.59-11.1 1.75-4.73 3.7-9.39 5.6-14.07.39-.95.89-1.87 1.44-2.74.89-1.39 1.7-1.63 3.26-1.12.34.11.68.27 1 .44 2.86 1.49 5.72 2.98 8.57 4.49.43.23.86.48 1.22.79.94.81 1.49 1.81 1.03 3.07-.56 1.54-1.23 3.04-1.78 4.58-.4 1.13-.82 2.3-.94 3.48-.14 1.34.54 2.28 1.53 2.63 1.28.45 2.27.13 3.17-1.07.33-.44.65-.89.89-1.38 1.6-3.28 3.23-6.54 4.75-9.86.96-2.1.52-3.56-1.35-4.93-.83-.61-1.74-1.12-2.63-1.64-3.42-1.99-6.88-3.91-10.26-5.96-3.56-2.17-3.8-2.86-1.44-6.49 4.79-7.35 10.07-14.34 15.71-21.07 2.5-2.98 3.73-3.03 6.58-.34 2.04 1.92 4.06 3.85 6.08 5.8.48.46.93.97 1.3 1.52.68.99.78 2.07.08 3.08-.73 1.05-1.54 2.03-2.32 3.04-.82 1.06-1.71 2.06-2.44 3.18-.7 1.08-.51 2.07.35 2.97.89.92 2.12 1.25 3.14.69.68-.37 1.34-.86 1.87-1.43 2.31-2.5 4.57-5.06 6.84-7.59.12-.14.23-.29.33-.43 1.27-1.74 1.28-2.97-.19-4.56-2.65-2.86-5.37-5.65-8.05-8.47-1.17-1.24-2.36-2.46-3.49-3.74-1.3-1.46-1.28-2.59.08-3.97.76-.78 1.56-1.55 2.41-2.23 5.26-4.14 10.54-8.25 15.82-12.37.43-.34.89-.64 1.36-.93 1.94-1.19 3.13-1.09 4.39.74 2.1 3.06 4.1 6.19 6.02 9.36 1.08 1.78.85 2.79-.71 4.18-1 .89-2.17 1.57-3.18 2.45-.63.54-1.29 1.19-1.59 1.93-.43 1.1.01 2.15.87 2.97.79.75 1.71.85 2.71.44.28-.12.58-.22.82-.38 2.48-1.65 4.97-3.29 7.43-4.98 1.06-.73 1.44-1.84 1.13-3.05-.24-.93-.63-1.84-1.1-2.68-2.19-3.86-4.44-7.69-6.65-11.55-2.01-3.51-1.81-4.79 1.78-6.51 6.36-3.05 12.82-5.87 19.3-8.67 1-.43 2.27-.31 3.41-.29.36.01.86.44 1.03.8.62 1.32 1.17 2.67 1.67 4.04.71 1.94 1.35 3.91 2.02 5.87 1.15 3.37.53 4.71-2.79 6.13-1.28.55-2.6 1.07-3.77 1.81-.6.38-1.12 1.14-1.32 1.83-.36 1.29.6 3.28 2.66 3.04.9-.11 1.81-.25 2.67-.54 2.24-.76 4.46-1.61 6.68-2.44.46-.17.91-.35 1.35-.56 2.82-1.36 2.97-1.68 2.09-4.72-1.38-4.79-2.79-9.58-4.18-14.36-.07-.23-.15-.46-.21-.7-.67-2.47-.35-3.11 2.03-4 .91-.34 1.83-.69 2.78-.88 4.71-.95 9.4-2 14.14-2.73 4.02-.62 8.1-.86 12.16-1.25.6-.11 1.21-.06 2.17-.06zm-42.88 283.23c-1.62-.59-2.98-1.06-4.33-1.58-1.25-.48-2.45-1.09-3.72-1.5-1.2-.39-2.13.05-2.83 1.09-1 1.48-.72 3.24.94 4.01 3.59 1.65 7.26 3.1 10.91 4.62.27.11.59.12.9.16 1.35.18 2.43-.23 2.97-1.55.65-1.57 1.28-3.15 1.84-4.76 1.23-3.56 2.26-7.2 3.66-10.69 1.34-3.33 1.28-3.88 5.75-2.76 5.07 1.26 10.09 2.71 15.31 3.33 1.79.21 3.59.68 5.3 1.28 1.94.68 2.5 1.99 2.2 4.03-.38 2.65-.69 5.3-1.02 7.96-.09.72-.12 1.46-.22 2.18-.27 1.95-.88 2.61-2.81 2.68-1.51.06-3.03-.11-4.55-.17-1.21-.05-2.44-.25-3.63-.12-.78.08-1.65.47-2.25 1-1.14 1-.99 2.43.31 3.21.87.53 1.85.95 2.84 1.2 4.64 1.15 9.39 1.28 14.14 1.19 1.09-.02 1.73-.62 1.89-1.63.2-1.19.28-2.41.38-3.62.37-4.36.63-8.73 1.12-13.07.46-4.07.83-4.18 4.93-4.32 4.86-.17 9.72-.45 14.57-.81 2.05-.15 4.08-.68 6.13-.94 1.99-.25 3.02.37 3.7 2.18 1.43 3.79 2.04 7.76 2.26 11.78.11 2.05-.51 2.94-2.49 3.48-1.39.38-2.87.42-4.31.64-1.2.19-2.42.3-3.56.66-1.4.45-1.93 1.59-1.7 3.04.22 1.34 1.03 2.16 2.48 2.21 1.39.05 2.81.01 4.18-.2 3.18-.49 6.34-1.11 9.51-1.69.6-.11 1.19-.26 1.75-.49 1.24-.5 2.01-1.4 1.9-2.8-.08-1.03-.18-2.06-.42-3.06-.97-3.95-2.02-7.89-2.99-11.84-.25-1-.38-2.04-.44-3.06-.11-1.78.3-2.43 1.94-3.08 1.3-.52 2.64-.93 3.96-1.39 3.67-1.28 7.35-2.56 11.02-3.86 1.32-.47 2.59-1.07 3.92-1.48 2.57-.79 3.09-.56 4.42 1.72.12.21.23.43.34.65 1.38 2.85 2.78 5.69 4.13 8.54.28.6.42 1.26.6 1.9.26.95-.04 1.68-.9 2.15-1.17.64-2.37 1.24-3.53 1.91-1.05.6-2.13 1.19-3.08 1.93-.84.65-1 1.99-.56 3.02.44 1.04 1.26 1.46 2.34 1.33.78-.09 1.6-.17 2.3-.47 2.74-1.17 5.48-2.34 8.15-3.68 3.15-1.58 3.42-2.67 1.78-5.79-2.26-4.31-4.53-8.62-6.78-12.93-.31-.59-.63-1.19-.84-1.82-.35-1.07-.17-2.05.79-2.77.73-.54 1.47-1.08 2.23-1.59 3.99-2.68 7.99-5.35 11.98-8.02.51-.34.99-.71 1.52-1.01 1.7-.98 2.42-1.03 3.69.44 2.62 3.04 5.08 6.22 7.6 9.34.04.05.06.1.09.16.75 1.36.71 2.19-.36 3.3-.8.83-1.74 1.52-2.6 2.28-.82.72-1.7 1.39-2.45 2.18-.89.94-.96 1.95-.37 3.01.58 1.05 1.53 1.57 2.75 1.31.75-.16 1.55-.45 2.15-.91 2.62-1.98 5.26-3.95 7.74-6.1 2.9-2.52 2.87-2.96.35-5.87-3.31-3.82-6.64-7.61-9.93-11.45-1.77-2.05-1.68-3.25.11-5.23 4.52-5.01 9.01-10.06 13.52-15.09.49-.54 1.02-1.05 1.51-1.59.76-.84 1.69-.92 2.67-.53.5.2.99.48 1.43.79 2.59 1.82 5.17 3.65 7.75 5.49.49.35.96.75 1.38 1.19 1.15 1.22 1.31 1.99.47 3.44-.7 1.2-1.56 2.32-2.38 3.45-.75 1.03-1.62 1.98-2.32 3.05-.93 1.41-.74 2.54.43 3.57 1.23 1.08 2.49 1.09 3.76-.03.41-.36.78-.78 1.11-1.21 2.25-2.95 4.49-5.91 6.71-8.89.47-.63.89-1.31 1.26-2.01.87-1.67.7-2.63-.72-3.86-.64-.56-1.35-1.04-2.06-1.5-3.87-2.53-7.77-5.02-11.61-7.59-2.41-1.61-2.66-2.77-1.38-5.39.05-.11.11-.22.17-.32 3.36-6.21 6.46-12.55 9.22-19.05 1.11-2.61 2.54-3.27 5.25-2.38 3.17 1.05 6.32 2.2 9.43 3.43 2.41.95 2.78 1.79 2.03 4.23-.52 1.68-1.32 3.27-1.83 4.95-.33 1.08-.48 2.24-.47 3.37.01 1.04.63 1.81 1.76 2.04 1.39.28 1.98.1 2.76-1.12.52-.82 1.02-1.67 1.37-2.57 1.33-3.4 2.61-6.82 3.88-10.23.19-.51.3-1.05.41-1.59.27-1.28-.09-2.34-1.32-2.88-1.44-.63-2.91-1.24-4.41-1.7-3.48-1.08-7-2.06-10.49-3.11-.93-.28-1.81-.71-2.71-1.07-.96-.38-1.47-1.11-1.43-2.12.06-1.45.05-2.94.36-4.35.86-3.98 1.81-7.94 2.21-12.01.16-1.56.49-3.13.94-4.64.73-2.44 2.02-3.15 4.53-2.85 2.96.35 5.92.65 8.89.97.36.04.73.07 1.09.14 2.11.38 2.48.72 2.56 2.83.07 1.82-.08 3.65-.02 5.47.02.76.18 1.61.55 2.26.94 1.66 2.64 1.75 3.89.32.84-.96 1.18-2.11 1.31-3.34.16-1.57.33-3.15.41-4.73.08-1.7.13-3.41.06-5.11-.08-1.94-.93-2.87-2.84-3.22-.71-.13-1.45-.15-2.18-.17-4.62-.13-9.25-.23-13.87-.36-.6-.02-1.21-.11-1.81-.22-.94-.17-1.53-.76-1.62-1.72-.14-1.39-.27-2.78-.34-4.18-.14-2.55-.14-5.11-.37-7.65-.19-2.12-.63-4.21-.94-6.31-.3-2.09.65-3.56 2.67-4.16.35-.1.71-.14 1.07-.2 2.51-.44 5.03-.88 7.54-1.3 1.08-.18 2.16-.41 3.25-.42 1.54-.02 2.42.64 2.79 2.12.26 1.05.25 2.16.42 3.24.19 1.19.29 2.43.7 3.55.52 1.41 1.63 1.88 3.09 1.63 1.28-.21 2.02-1.07 2.14-2.56.05-.66.1-1.35.01-2-.41-2.88-.81-5.77-1.35-8.64-.73-3.93-1.53-4.52-5.43-3.79-4.54.84-9.05 1.82-13.56 2.8-3.56.77-4.73.1-5.68-3.45-.02-.06-.02-.12-.04-.18-1.53-6.02-3.45-11.91-5.7-17.7-.35-.89-.56-1.87-.64-2.83-.1-1.21.25-2.33 1.46-2.9 3.35-1.58 6.72-3.14 10.09-4.7.22-.1.47-.11.71-.16 1.78-.35 2.63-.07 3.52 1.51.74 1.32 1.25 2.76 1.89 4.14.54 1.16 1 2.36 1.69 3.42.81 1.25 1.82 1.49 2.98 1 1.23-.52 2.04-1.79 1.86-3.05-.09-.59-.29-1.19-.52-1.74-1.61-3.81-3.23-7.62-4.87-11.41-.26-.61-.61-1.2-1.01-1.72-.97-1.24-1.73-1.44-3.18-.87-.68.27-1.33.61-1.97.94-4.27 2.2-8.54 4.4-12.82 6.6-.43.22-.89.4-1.34.58-1.23.48-2.29.19-3.11-.82-.61-.75-1.15-1.57-1.69-2.38-3.65-5.39-7.29-10.78-10.94-16.17-.27-.4-.6-.77-.86-1.18-1.03-1.61-.96-3.18.44-4.46 2.79-2.54 5.63-5.02 8.55-7.41 1.66-1.36 2.39-1.27 3.95.26 1.12 1.1 2.05 2.4 3.1 3.58.84.96 1.65 1.96 2.62 2.78.97.82 2.25.61 3.34-.3 1.08-.91 1.28-1.8.64-3.06-.27-.54-.61-1.06-.99-1.53-2.47-3.01-4.95-6.01-7.45-9-.43-.51-.92-.98-1.43-1.41-1.32-1.1-2.05-1.16-3.44-.22-.7.47-1.36 1.03-1.98 1.61-3.38 3.16-6.72 6.36-10.11 9.51-2.62 2.44-3.42 2.38-6.17 0-4.37-3.78-8.79-7.51-13.17-11.28-.6-.51-1.18-1.05-1.71-1.64-.81-.9-.98-1.95-.42-3.04.42-.81.87-1.61 1.38-2.36a355.9 355.9 0 0 1 4.15-6.01c.49-.7 1.01-1.38 1.57-2.01 1.11-1.24 1.91-1.4 3.37-.56.89.51 1.7 1.18 2.54 1.77.95.66 1.85 1.4 2.86 1.95 1.45.8 2.75.34 3.53-1.09.78-1.42.6-2.67-.94-3.84-2.9-2.21-5.91-4.29-8.89-6.38-.43-.3-1-.45-1.52-.57-.97-.23-1.74-.01-2.33.93-1.45 2.32-2.98 4.59-4.47 6.89-1.66 2.55-3.26 5.14-4.97 7.65-1.35 1.98-2.7 2.21-4.85 1.12-4.78-2.41-9.57-4.79-14.36-7.18-.54-.27-1.11-.52-1.57-.91-.95-.79-1.53-1.84-1.08-3.07 1.37-3.77 2.74-7.54 4.29-11.23.71-1.69 1.81-2.04 3.61-1.53 1.1.31 2.12.92 3.22 1.26 1.15.35 2.33.65 3.52.78 1.11.12 1.82-.61 2.19-1.6.37-.99.26-1.97-.62-2.65-.81-.62-1.68-1.22-2.61-1.63-2.78-1.23-5.58-2.41-8.41-3.53-3.05-1.2-3.91-.77-5.04 2.36-.15.4-.28.8-.41 1.21-1.24 3.69-2.46 7.38-3.72 11.07-.37 1.09-.81 2.16-1.26 3.22-.53 1.24-1.42 1.94-2.85 1.77-1.26-.15-2.55-.17-3.79-.44-4.21-.92-8.4-1.95-12.61-2.9-1.42-.32-2.87-.51-4.3-.79-.89-.18-1.78-.38-2.65-.64-.84-.25-1.24-.82-1.31-1.75-.15-1.82-.29-3.6.01-5.44.4-2.52.55-5.08.71-7.62.08-1.23.79-1.81 1.84-1.87 1.5-.07 3.02.03 4.52.14 1.63.11 3.25.44 4.88.44 1.45 0 2.46-1.12 2.67-2.54.19-1.33-.48-2.41-1.93-2.91-.68-.23-1.42-.34-2.13-.44-3.07-.44-6.14-.87-9.21-1.27-1.2-.16-2.42-.31-3.63-.33-2.29-.03-2.94.52-3.28 2.76-.15.96-.15 1.94-.21 2.91-.26 4.19-.52 8.37-.79 12.56-.03.48-.16.96-.27 1.43-.54 2.17-1.47 3-3.64 3.17-5.94.47-11.89.92-17.83 1.39-1.45.11-2.91.26-4.36.37-2.21.17-3.12-.47-3.68-2.6-.37-1.41-.82-2.81-1.05-4.25-.4-2.52-.73-5.05-.94-7.59-.13-1.67.04-1.81 1.69-2.28 1.11-.31 2.27-.42 3.39-.69 1.83-.45 3.69-.82 5.44-1.49 1.89-.71 2.04-2.79.47-4.07-.93-.76-1.97-.92-3.08-.78-1.75.22-3.5.46-5.23.77-2.45.45-4.91.84-7.31 1.49-3.38.91-3.74 1.56-2.96 4.96.82 3.55 1.81 7.06 2.64 10.61.4 1.71.7 3.45.92 5.19.21 1.6-.66 2.65-2.04 3.33-.44.21-.9.37-1.36.54-5.55 1.99-11.11 3.96-16.65 5.96-2.86 1.03-3.96.69-5.34-1.98-1.5-2.92-2.88-5.9-4.31-8.86-.13-.27-.24-.56-.33-.85-.57-1.76-.32-2.59 1.22-3.56.82-.52 1.72-.9 2.6-1.32.88-.42 1.77-.81 2.66-1.2 1.59-.71 2-2.4 1.26-4.03-.69-1.51-1.65-1.82-3.49-1.18-.17.06-.35.11-.52.18-2.66 1.21-5.32 2.4-7.96 3.64-.82.39-1.56.94-2.35 1.39-1 .57-1.31 1.46-.96 2.48.39 1.14.85 2.27 1.41 3.34 2.1 4.05 4.27 8.06 6.36 12.12 1.47 2.85 1.29 3.45-1.32 5.21-4.65 3.12-9.3 6.24-13.95 9.35-2.29 1.53-2.96 1.44-4.81-.6-.08-.09-.16-.18-.24-.28-1.97-2.4-3.95-4.79-5.9-7.2-.38-.47-.73-.98-1-1.52-.62-1.27-.55-2.5.52-3.51.84-.79 1.78-1.47 2.65-2.23.82-.72 1.69-1.4 2.39-2.24.78-.94.66-2.41-.09-3.4-.68-.9-1.67-1.16-2.95-.69-.51.18-1 .46-1.43.78-2.38 1.79-4.76 3.6-7.1 5.44-.76.6-1.44 1.31-2.09 2.03-.71.8-.84 1.77-.34 2.72.39.75.84 1.49 1.38 2.13 1.37 1.63 2.8 3.21 4.21 4.81 1.81 2.06 3.66 4.08 5.42 6.17 1.9 2.26 1.84 3.54-.16 5.73-.78.85-1.63 1.64-2.4 2.5-3.77 4.22-7.52 8.46-11.3 12.67-1.85 2.06-3.28 2.26-5.59.7-2.62-1.77-5.16-3.66-7.72-5.52-.39-.28-.75-.62-1.08-.98-1.11-1.24-1.26-2.25-.37-3.64.72-1.12 1.61-2.14 2.41-3.21.84-1.12 1.74-2.2 2.47-3.39.74-1.2.31-2.5-.96-3.49-1.18-.92-2.2-.99-3.24.14-3.51 3.81-6.59 7.97-9.32 12.36-.78 1.25-.47 2.49.51 3.51.58.61 1.27 1.14 1.98 1.6 3.52 2.29 7.06 4.55 10.58 6.83.71.46 1.42.95 2.05 1.52 1.51 1.36 1.73 2.37.98 4.23-.25.62-.59 1.2-.88 1.8l-8.58 17.73c-.37.77-.78 1.51-1.13 2.29-.38.86-1.04 1.13-1.92 1.02-.48-.06-.99-.06-1.44-.21-3.45-1.19-6.92-2.32-10.32-3.64-2.12-.82-2.63-1.95-2.08-4.21.33-1.35.96-2.62 1.4-3.94.38-1.15.73-2.31.98-3.49.26-1.22-.46-2.12-1.3-2.85-1.14-.98-2.4-.77-3.24.5-.4.6-.75 1.26-1.01 1.93-1.5 3.92-2.97 7.85-4.43 11.78-.13.34-.22.7-.28 1.06-.3 1.89.14 2.69 1.91 3.43.62.26 1.26.45 1.9.64 4.49 1.34 8.99 2.64 13.46 4.02 2.65.82 3.48 2.22 3.06 4.98-.26 1.68-.53 3.37-.94 5.02-.81 3.25-1.48 6.52-1.69 9.87-.08 1.33-.32 2.67-.69 3.94-.57 1.99-1.52 2.71-3.59 2.68-3.41-.05-6.81-.22-10.21-.35-.3-.01-.6-.08-.9-.14-1.72-.38-2.42-1.07-2.57-2.82-.11-1.21-.02-2.43-.03-3.65v-3.1c-.01-1.08-.41-1.9-1.5-2.24-1.19-.38-2.29-.02-3 1.1-.42.66-.8 1.4-.96 2.15-.77 3.59-.89 7.24-.74 10.9.05 1.36.62 1.97 1.96 2.27.94.21 1.92.29 2.89.31 2.31.06 4.63.01 6.94.09 2.25.07 4.5.2 6.74.39 2.96.24 3.91 1.31 4 4.29.09 2.8.18 5.59.31 8.38.04.91.16 1.82.3 2.72.29 1.8.74 3.57.91 5.38.2 2.02-.22 2.57-2.1 3.31-3.92 1.55-8.07 1.74-12.19 1.94-1.93.1-2.9-.86-3.3-2.75-.2-.94-.19-1.93-.31-2.89-.11-.9-.11-1.85-.41-2.68-.23-.63-.74-1.29-1.31-1.62-1.76-1.04-4.42.06-4.24 2.46.34 4.49 1.28 8.89 2.24 13.28.35 1.58 1.5 1.99 3.13 1.55 1.11-.3 2.21-.65 3.34-.89 3.21-.69 6.43-1.35 9.64-1.99 1.13-.22 2.27-.44 3.42-.52 2.33-.16 3.52.71 4.17 2.92.32 1.11.59 2.24.95 3.33 1.73 5.25 3.46 10.51 5.24 15.75 1.05 3.11.57 4.51-2.37 5.92-2.85 1.36-5.76 2.62-8.64 3.92-2.27 1.02-3.47.6-4.69-1.83-.65-1.3-1.1-2.7-1.69-4.03-.42-.94-.83-1.91-1.41-2.74-.8-1.14-2.48-1.39-3.81-.75-1.2.58-1.49 1.43-1.05 3.11.05.18.11.35.18.52 1.77 4.14 3.46 8.31 5.35 12.39 1.19 2.59 2.59 2.94 5.2 1.72.28-.13.54-.28.81-.42l12.18-6.24c.49-.25.99-.47 1.5-.68 1.41-.56 2.66-.27 3.64.86.71.83 1.29 1.76 1.91 2.66l10.26 15.09c.41.6.89 1.16 1.28 1.78.66 1.05.65 3.42-.12 4.11-2.9 2.6-5.81 5.2-8.8 7.68-1.37 1.13-2.99.92-4.26-.4-.97-1-1.81-2.13-2.7-3.2-.82-.98-1.6-2-2.49-2.91-.95-.97-1.8-1-2.95-.29-1.78 1.08-2.09 2.81-.63 4.68 2.6 3.3 5.3 6.51 7.98 9.74.39.47.85.88 1.32 1.26 1.31 1.06 2.06 1.07 3.43.03.63-.48 1.21-1.02 1.78-1.57 3.1-2.92 6.18-5.87 9.29-8.78.75-.7 1.57-1.35 2.41-1.94 1-.7 2.07-.65 3.08.01.51.33.97.74 1.43 1.13 4.22 3.59 8.43 7.18 12.64 10.77.56.47 1.13.93 1.65 1.44 1.74 1.71 1.93 2.6.61 4.64-1.85 2.86-3.83 5.64-5.76 8.44-.21.3-.46.56-.72.83-1.37 1.4-2.19 1.55-3.86.53-1.03-.63-1.96-1.45-2.98-2.1-.81-.52-1.66-1.04-2.57-1.33-1.21-.39-2.49.22-3.14 1.29-.6.99-.51 1.93.46 2.99.65.71 1.39 1.37 2.17 1.94 2.17 1.57 4.36 3.12 6.57 4.61 2.68 1.81 3.59 1.66 5.37-.98 1.5-2.22 2.86-4.53 4.31-6.78 1.55-2.4 3.06-4.83 4.7-7.17 1.33-1.89 1.79-1.94 3.8-.95 5.01 2.49 10.02 4.98 15.02 7.48 3.11 1.56 3.53 2.58 2.3 5.8-1 2.61-2.02 5.22-3.12 7.79-.67 1.21-1.38 2.41-2.18 3.96zm558.82-96.44c-4.43-9.28-8.83-18.5-13.25-27.75h-5.19v27.84h-26.31c-.58-2.2-.77-76.71-.19-81.21.82-.06 1.69-.19 2.57-.19 10.53-.01 21.06-.04 31.59.01 6.11.03 12.11.9 17.85 3.1 14.54 5.58 20.65 21.64 13.59 35.58-1.83 3.61-4.5 6.46-7.87 8.67-.84.55-1.7 1.08-2.88 1.82 6.09 10.62 12.16 21.19 18.24 31.79-2.25.76-23.11 1-28.15.34zM648 147.24c2.75.64 8.13.61 10.32-.01 3.08-.88 4.68-3.11 4.72-6.55.04-3.46-1.47-5.81-4.53-6.69-3.43-.99-6.91-.69-10.51-.42v13.67zm-91.69 35.94c-1.06 4.1-2.09 8.08-3.14 12.16h-28.22c8.49-27.2 16.9-54.15 25.36-81.25h35.25c8.39 26.86 16.81 53.82 25.23 80.79-2.29.74-24.21.93-28.12.27-1.04-3.87-2.11-7.85-3.22-11.97h-23.14zm17.92-20.74c-2.04-7.89-4.01-15.54-5.99-23.2l-.62.03c-1.96 7.65-3.92 15.3-5.94 23.16 4.38.01 8.28.01 12.55.01zm279.33 32.89h-28.2c-1.08-4.01-2.16-7.98-3.29-12.14H799c-1.04 3.9-2.12 7.94-3.24 12.13h-27.61c.01-2.23 23.21-77.33 25.12-81.33h34.9c8.42 26.98 16.86 54.01 25.39 81.34zm-37.03-32.9c-.4-4.53-5.01-21.36-6.36-22.92-1.84 7.69-4.11 15.14-5.72 22.92h12.08zm-290.91-22.19c-.47-11.37-6-19.24-16.65-23.4-5.24-2.05-10.72-2.91-16.33-2.94-10.62-.04-21.24-.01-31.87 0-.77 0-1.55.13-2.39.21v81.02c3.76.66 24.19.5 26.56-.24v-24.5c3.43 0 6.45.08 9.46-.01 5.6-.18 11.05-1.22 16.19-3.53 8.05-3.62 13.11-9.67 14.54-18.46.44-2.67.61-5.44.49-8.15zm-27.23 4.1c-.36 2.9-2.08 4.9-4.94 5.41-2.63.48-5.34.48-8.34.72v-16.12c3.05-.59 5.92-.39 8.77.31.67.16 1.34.5 1.89.91 3.08 2.25 3.03 5.5 2.62 8.77zm-120.42 37.4c6.01-4.14 11.74-8.08 17.58-12.1.95.83 1.77 1.56 2.61 2.26 4.2 3.49 8.92 5.56 14.49 5.15 1.29-.09 2.64-.36 3.81-.87 3.15-1.37 3.62-4.98.91-7.07-1.1-.85-2.41-1.52-3.72-2.01-3.31-1.24-6.66-2.38-10.03-3.48-4.44-1.45-8.67-3.28-12.64-5.82-14.08-8.99-14.4-33.77 3.3-41.88 5.36-2.45 10.99-3.42 16.81-3.44 7.18-.03 14.1 1.17 20.59 4.4 4.39 2.19 8.19 5.1 11.49 9.23-5.62 3.91-11.06 7.7-16.56 11.54-2.82-2.7-5.79-4.83-9.58-5.17-1.97-.18-4.03.03-5.99.37-1.55.27-2.75 1.34-3.1 3-.38 1.76.26 3.27 1.68 4.27 1.31.92 2.74 1.75 4.24 2.32 3.5 1.33 7.11 2.36 10.58 3.74 3.56 1.41 7.13 2.88 10.51 4.68 15.21 8.12 14.4 30.44 1.87 39.23-4.58 3.21-9.61 5.13-15.07 6.06-8.95 1.52-17.75 1.02-26.34-2.04-6.82-2.45-12.54-6.47-17.44-12.37zm369.5 13.57h-26.69v-60.05c-3.77-.03-7.27-.06-10.77-.08-3.54-.01-7.08 0-10.56 0-.68-2.28-.83-17.25-.22-21.1h69.86v20.93c-3.44.37-6.95.11-10.45.16-3.54.05-7.08.01-11.02.01-.32 4.05-.11 7.96-.14 11.86-.04 4.05-.01 8.1-.01 12.15v36.12z"/><path class="st0" d="M158.19 277.98c-4.59-.26-9.5-.2-14.3-.87-25.93-3.58-48.51-14.23-67.32-32.55-14.98-14.59-25.26-32.01-31.04-52.08-1.55-5.38-2.44-10.9-3.35-16.42-1.42-8.6-1.53-17.22-.67-25.83C44.33 121.9 55.5 97.41 75.7 77.21c16.06-16.08 35.3-26.47 57.44-31.57 4.53-1.04 9.09-1.61 13.71-1.87 2.85-.16 5.69-.52 8.55-.71 4.33-.29 8.63.11 12.94.54 3.09.31 6.21.38 9.26.86 6.8 1.06 13.43 2.9 19.92 5.18C233.29 62.2 261.16 92 271.37 128.5a127.03 127.03 0 0 1 3.93 20.21c.57 5.06.6 10.22.43 15.31-.84 24.4-8.4 46.56-22.95 66.19-15.65 21.13-36.17 35.46-61.39 43-6.31 1.89-12.76 3.12-19.26 3.99-4.51.61-9.1.53-13.94.78zm.23-6.31c3.72-.1 7.62-.19 11.51-.3.73-.02 1.46-.1 2.17-.24 3.87-.77 7.76-1.49 11.6-2.39 10.79-2.53 20.99-6.59 30.56-12.2 9.29-5.44 17.66-12.04 25.01-19.94 4.78-5.14 9.11-10.62 12.86-16.55 5.79-9.15 10.25-18.9 13.14-29.35.19-.7.4-1.4.58-2.1.65-2.59 1.32-5.17 1.92-7.76.23-1 .2-2.06.41-3.07.86-4.3 1.35-8.63 1.49-13.01.18-5.6.05-11.19-.62-16.75-.33-2.77-.75-5.55-1.36-8.27-.77-3.49-1.67-6.96-2.69-10.38-7.96-26.77-23.81-47.64-47.17-62.83-9.86-6.41-20.6-10.9-31.98-13.87-.94-.24-1.87-.51-2.81-.72-1.95-.43-3.9-.94-5.88-1.2-3.98-.53-7.97-.89-11.96-1.36-3.69-.44-7.38-.71-11.1-.24-4.52.57-9.07.97-13.58 1.59-2.82.39-5.63.92-8.4 1.6-2.46.6-4.84 1.55-7.28 2.25-8.25 2.36-15.93 5.99-23.26 10.38-9.73 5.82-18.38 12.95-25.92 21.44-13.57 15.28-22.21 33-26.31 52.97-.35 1.72-.3 3.53-.7 5.23-1.92 8.29-1.77 16.65-1.14 25.05.3 4 1.77 7.84 1.68 11.89-.01.24.08.48.15.71 1.15 4.15 2.14 8.36 3.49 12.45 6.24 18.86 16.57 35.08 31.42 48.39 8.87 7.95 18.68 14.39 29.58 19.19 7.99 3.52 16.3 6.03 24.87 7.65 2.69.51 5.36 1.18 8.08 1.39 3.8.29 7.64.24 11.64.35z"/><path class="st0" d="M149.57 90.85c3.16.13 6.32.24 9.48.39.54.03 1.06.22 1.59.33 1.21.25 1.92-.17 2.19-1.3.24-1.02-.26-2.02-1.28-2.3-.82-.22-1.67-.32-2.52-.4-12.18-1.15-24.3-.57-36.38 1.34-9.2 1.45-18.3 3.34-27.37 5.42-.53.12-1.07.21-1.62.27-1.19.12-2.57-1.46-1.66-2.83.4-.6.85-1.18 1.33-1.74 3.34-3.94 6.65-7.92 10.07-11.8 1.72-1.95 3.85-3.28 6.61-3.4 3.98-.18 7.97-.39 11.93-.78 8.57-.84 17.15-.6 25.72-.22 6.31.28 12.63.9 18.88 1.8 3.64.52 7.19 1.79 10.71 2.91 1.17.37 2.24 1.22 3.2 2.04 1.92 1.64 4.02 2.62 6.59 2.75 2.18.11 4.35.49 6.52.78 4.63.63 8.38 3.06 11.89 5.94.74.61 1.42 1.3 2.1 1.98 2.8 2.77 6.2 4.41 9.96 5.48 2.97.85 5.93 1.78 8.8 2.9 3.22 1.26 6.35 2.77 9.52 4.16 1.11.49 2.26.91 3.35 1.43 3.17 1.51 4.05 6 1.41 8.25-1.68 1.43-2.15 3.12-2.3 5.09-.07.85-.11 1.71-.28 2.54-.28 1.42-.84 1.94-2.25 1.79-1.8-.2-3.62-.49-5.36-.97-4.22-1.18-8.41-2.42-12.75-3.08-8.55-1.31-16.99-.69-25.35 1.36-6.84 1.68-13.4 4.08-19.22 8.13-9.24 6.43-15.99 14.84-20.07 25.38-1.34 3.46-2.87 6.84-3.67 10.49-2.52 11.53-2.16 22.97 2.42 33.87 5.68 13.54 15.56 22.74 29.99 26.6 1.58.42 3.19.69 4.79 1.03 1.51.32 3.3 2.47 3.58 4.25.48 3 1.38 5.89 2.69 8.62.48 1.01 1.42 1.8 2.08 2.73.66.93 1.39 1.85 1.83 2.88.48 1.13.11 1.94-1.05 2.3-1.07.34-2.28.65-3.36.51-5.49-.71-10.96-1.56-16.43-2.41-.83-.13-1.63-.45-2.44-.72-2.06-.69-2.93-2.23-3.04-4.3-.11-2.11-.19-4.23-.35-6.34-.06-.78-.23-1.56-.49-2.3-.28-.8-.92-1.29-1.82-1.26-.97.03-1.91.8-2.12 1.71-.07.29-.12.61-.08.9.29 2.22.51 4.45.93 6.65.28 1.49-.15 2.72-1.49 3.02-3.03.69-5.78.05-8.1-2.08-1.16-1.07-1.79-2.42-1.79-4.05-.01-4.47.61-8.84 2.02-13.09.45-1.36-.17-2.77-1.51-3.18-.3-.09-.78-.04-1 .14-.54.46-1.08.99-1.43 1.6-.36.62-.61 1.35-.7 2.06-.42 3.43-1.4 6.8-1.19 10.31.05.83-.14 1.7-.37 2.51-.49 1.7-1.79 2.44-3.5 2.04-1.12-.26-2.22-.64-3.33-.95-1.57-.44-2.52-1.66-3.49-2.81-.27-.32-.37-.92-.31-1.37.41-3.13.61-6.32 1.38-9.36.99-3.88 2.44-7.64 3.72-11.44.13-.39.48-.7.69-1.06.54-.91.22-2.33-.64-2.94-.81-.57-1.83-.38-2.34.51-.37.63-.64 1.31-.94 1.98-2.65 5.85-4.74 11.85-5.1 18.35-.05.82-.33 1.66-.66 2.43-.64 1.49-2.21 2.04-3.63 1.32-1.14-.57-2.33-1.08-3.34-1.83-1.34-1-2.33-2.27-2.07-4.17 1.05-7.77 2.89-15.28 6.81-22.18 1.74-3.06 3.37-6.19 5.04-9.3.62-1.15.46-2.2-.38-2.78-.9-.63-2.17-.31-2.98.85-2.55 3.65-4.64 7.57-6.42 11.65-2.32 5.33-3.7 10.93-4.95 16.58-.09.41-.14.85-.12 1.27.1 1.67-.81 2.69-2.17 3.35-1.17.57-2.27.09-3.28-.52-.94-.56-1.78-1.32-2.76-1.78-2.07-.98-2.73-3.74-2.24-5.48 2.07-7.33 4.35-14.56 8.18-21.22 2.73-4.75 5.49-9.47 9.4-13.41 1.15-1.16 2.1-2.52 3.08-3.84 1-1.34 1.03-2.24.23-2.9-.97-.81-1.98-.66-3.18.52-4.46 4.38-8.13 9.37-11.28 14.75-3.83 6.55-6.6 13.54-8.75 20.8-.29.97-.74 1.92-1.27 2.8-.67 1.12-1.87 1.54-3 .91-1.74-.98-3.5-2.01-5-3.3-1.69-1.45-1.77-3.54-1.21-5.57a78.67 78.67 0 0 1 5.34-14.15c5.67-11.53 13.44-21.41 23.4-29.53 1.12-.92 2.37-1.7 3.61-2.45.74-.45 1.27-.9 1.21-1.84-.06-.95-.61-1.64-1.35-2.03-.37-.2-1.14-.09-1.49.18-4.4 3.45-8.98 6.69-12.8 10.82-7.3 7.89-13.31 16.6-17.32 26.62-.85 2.14-1.67 4.29-2.52 6.43-.22.56-.51 1.1-.79 1.64-1.11 2.1-3.73 2.31-5.06.77-1.82-2.09-3.43-4.4-4.88-6.77-.82-1.33-.57-2.96.01-4.43.29-.73.64-1.45 1.08-2.11 4.31-6.48 8.53-13.03 13.01-19.4 5.84-8.3 13.25-15.06 21.4-21.02 1.86-1.36 3.94-2.42 5.91-3.61 2.14-1.29 4.31-2.52 6.4-3.87 1.31-.85 1.44-2.28.34-3.22-.34-.29-1.06-.47-1.45-.31-1.68.67-3.33 1.43-4.94 2.26-6.94 3.56-13 8.32-18.61 13.7-6.04 5.79-11.35 12.22-16.13 19.07-2.82 4.04-5.53 8.16-8.22 12.29-.81 1.25-1.89 1.84-3.3 1.96-.94.08-1.59-.27-2.01-1.2-.86-1.94-1.82-3.84-2.75-5.76-.86-1.77-.9-3.6.04-5.27 7.17-12.69 15.35-24.57 27.17-33.5 8.44-6.37 17.66-11.18 27.83-14.13 1.62-.47 3.3-.71 4.95-1.1.45-.11.93-.29 1.3-.56 1.01-.75 1.23-1.47.85-2.34-.38-.87-1.12-1.26-2.27-1.09-.84.12-1.67.32-2.5.51-16.67 3.84-30.87 11.91-42.4 24.63-4.88 5.38-9.47 10.96-13.5 16.99-.36.54-.76 1.18-1.3 1.46-1.41.73-2.84.01-3.15-1.59-.44-2.33-.77-4.68-1.05-7.03-.2-1.69-.23-3.4-.36-5.1-.14-1.84.32-3.44 1.63-4.79 9.47-9.71 19.64-18.56 31.43-25.39 4.63-2.68 9.5-4.86 14.62-6.54 5.62-1.85 11.41-2.89 17.19-3.95 2.13-.39 4.36-.24 6.54-.32.36-.01.73.05 1.09.07.92.05 1.51-.5 1.84-1.23.32-.7.23-1.46-.43-1.99-.41-.33-.87-.68-1.36-.84-5.88-1.96-10.96-5.23-15.3-9.61-1.31-1.32-2.28-2.99-3.4-4.5-.11-.15-.18-.31-.26-.48-.87-1.84-.32-2.96 1.7-3.17 3.81-.41 7.62-.82 11.44-1.05 2.67-.16 5.35-.03 8.03-.03.01-.03.01-.06.01-.09zm38.46 2.67c.23.62.37 1.28.69 1.84.9 1.59 2.24 2.67 4 3.24 2.64.86 5.49.99 8 2.37.42.23 1.39-.04 1.79-.41.54-.5.91-1.28.44-2.15-.33-.63-.58-1.31-.81-1.99-.56-1.7-1.59-2.99-3.22-3.75-.71-.34-1.41-.72-2.16-.96-2.5-.83-5-.72-7.48.15-.78.27-1.22.76-1.25 1.66z"/><path class="st0" d="M205.39 202.24c-1.9-3.2-.62-6.08 2.97-6.67 1.55-.26 3.13-.37 4.69-.42 1.43-.05 2.69.94 2.98 2.24.32 1.47-.03 2.5-1.36 3.23-.84.46-1.64 1.07-2.33 1.74-1.3 1.28-1.14 2.8.13 4.11 3.69 3.81 5.34 8.27 3.79 13.51-1.62 5.47-7.39 8.31-12.89 6.84-4.51-1.21-9.15-1.96-13.7-3.02-3.37-.79-6.74-1.63-10.03-2.68-5.59-1.78-10.07-5.35-14.17-9.39-6.85-6.76-11.39-14.81-13.13-24.34-.15-.84-.32-1.68-.36-2.53-.38-7.66-.99-15.36 1.76-22.75 2.26-6.07 5.32-11.76 9.06-17.04 1.46-2.06 3.38-3.83 5.25-5.57 8.57-7.96 18.75-12.73 30.16-14.98 1.67-.33 3.37-.48 5.04-.79 2.03-.38 3.57.37 4.81 1.9.27.33.52.68.8 1 .88.99 1.57.95 2.34-.11.21-.29.36-.64.59-.92 1-1.23 2.1-1.51 3.53-.94 1.37.55 2.02 1.45 1.85 2.99-.22 1.92-.64 3.82-.92 5.73-.09.64-.11 1.34.05 1.96.27 1.05 1.79 1.45 2.64.61 1.29-1.27 2.53-2.63 3.59-4.1 1.03-1.42 1.8-3.03 2.72-4.54.38-.62.84-1.18 1.28-1.77.91-1.22 2.14-1.23 3.44-.88 1.18.32 1.81 1.02 1.71 2.25-.11 1.38-.28 2.82-.79 4.08-1.02 2.54-1.29 5.04-1.13 7.81.62 10.26.97 20.54 1.37 30.81.13 3.28-.01 6.58.2 9.85.18 2.72-2.55 4.91-4.78 4.51-1.37-.24-2.79-.26-4.18-.38-.97-.08-1.79.24-2.49.91-.89.85-.97 1.36-.42 2.73.47 1.16.15 2.67-.73 3.53-.94.92-2.44 1.31-3.54.7-2.42-1.36-5.03-1.3-7.62-1.03-3.53.37-6.65 1.87-9.49 3.96-2.16 1.6-3.36 3.82-3.92 6.4-.7 3.27 1.37 5.31 4.06 6.19 2.74.89 5.5-.44 6.58-3.09.21-.51.37-1.03.59-1.65zm20.2-36.54c.05 0 .09 0 .14-.01-.21-4.18-.41-8.35-.62-12.53-.01-.18-.03-.36-.05-.54-.19-1.31-.83-2.05-1.99-2.28-1.26-.25-2.37.17-2.94 1.3-1.11 2.19-2.63 4.18-2.52 6.91.07 1.83-1.59 2.87-3.42 2.6-1.38-.2-2.3-1.01-2.99-2.16-.92-1.52-2.21-2.43-4-2.9-1.36-.36-2.79-.47-4.09-1.24-1.18-.69-1.57-1.53-1.65-2.78-.08-1.27.43-2.17 1.53-2.64 1.95-.83 3.88-1.82 5.93-2.25 2.84-.61 5.77-.82 8.67-1.11 1.65-.17 3.24-.48 4.73-1.21 1.29-.63 1.96-1.8 2.17-3.14.21-1.33-.89-2.34-2.24-2.19-.96.11-1.91.31-2.85.52-1.77.4-3.5.97-5.29 1.22-3.24.46-6.49.84-9.76 1.05-2.81.18-4.58 1.67-5.91 3.95-5.08 8.68-11.62 15.86-20.8 20.38-4.99 2.46-5.8 10.1-2.38 13.12 1.23 1.08 2.39 2.28 3.36 3.59 1.5 2.04 2.57 4.16 1.3 6.89-1.3 2.77-.38 5.45 2.1 7.67.71.63 1.44.81 2.34.69 2.59-.35 3.94-2.05 4.59-4.36.57-2.02 1.53-3.79 2.72-5.51 3.37-4.84 7.85-8.09 13.52-9.65 2.94-.82 5.91-1.08 9.01-.58 2.73.44 5.57.41 8.35.33 2.27-.06 3.35-1.39 3.45-3.67.03-.73.01-1.46-.02-2.19l-.39-7.28zM74.53 138.42c.53-3.73 1.01-7.46 1.61-11.18.27-1.68 1.17-2.96 2.71-3.9 10.07-6.1 20.56-11.27 31.75-15.05 5.39-1.82 10.86-3.1 16.43-4.1 2.25-.4 4.2.2 5.75 1.97.39.44.9.83 1.44 1.06.89.39 1.47.99 1.27 1.95-.2.96-.64 1.83-1.78 2.08-2.02.44-4.04.88-6.03 1.41-8.24 2.18-15.92 5.63-23.12 10.17-8.51 5.36-16.55 11.36-24.16 17.93-.41.36-.82.73-1.24 1.07-.9.72-1.82 1.18-3 .54-1.09-.59-1.63-1.39-1.43-2.66.07-.42.01-.85.01-1.28-.08.01-.14 0-.21-.01zm45.53-45.03c.43 0 .85-.01 1.28 0 .94.01 1.56.43 2 1.3.4.8.92 1.58 1.54 2.22.88.91 1.41 1.87.97 3.1-.42 1.18-1.32 1.78-2.56 2.06-3.62.8-7.26 1.53-10.81 2.57-7.72 2.26-15.05 5.54-22.27 9.06-1.74.85-3.42 1.83-5.13 2.75-.21.12-.42.24-.64.35-1.42.7-2.51.6-3.52-.36-1-.96-1.07-2.21-.6-3.35 1.18-2.86 2.48-5.68 3.82-8.47.46-.95.64-2.04 1.61-2.79.83-.65 1.62-1.23 2.65-1.48 7.37-1.8 14.73-3.68 22.12-5.41 3.13-.73 6.33-1.13 9.5-1.69.02.05.03.09.04.14z"/></svg>